<svg width="1071" height="1069" viewBox="0 0 1071 1069" fill="none" xmlns="http://www.w3.org/2000/svg">
<path d="M375.001 0C480.931 0 586.861 0 696.001 0C696.485 140.675 696.485 140.675 696.579 194.563C696.603 208.654 696.628 222.745 696.655 236.836C696.658 238.54 696.662 240.245 696.665 241.949C696.716 269.113 696.806 296.277 696.916 323.44C697.03 351.362 697.103 379.283 697.128 407.205C697.131 411.15 697.135 415.095 697.139 419.04C697.14 420.205 697.141 420.205 697.142 421.393C697.156 433.884 697.212 446.375 697.283 458.865C697.353 471.428 697.38 483.989 697.363 496.552C697.354 503.357 697.367 510.16 697.431 516.965C697.49 523.198 697.493 529.429 697.452 535.662C697.446 537.914 697.462 540.166 697.499 542.418C697.792 560.98 697.792 560.98 691.761 568.006C689.302 570.512 686.693 572.745 684.001 575C682.217 576.972 682.217 576.972 680.845 578.84C676.335 584.8 671.707 590.6 666.813 596.25C660.436 603.625 654.354 611.152 648.563 619C645.067 623.698 641.337 628.018 637.372 632.32C634.675 635.368 632.178 638.532 629.688 641.75C625.92 646.619 622.039 651.352 618.001 656C613.526 661.154 609.257 666.428 605.075 671.82C601.551 676.347 597.878 680.726 594.145 685.082C590.135 689.784 586.313 694.623 582.528 699.508C580.764 701.781 579.038 703.963 577.001 706C573.313 705.616 569.854 704.355 566.331 703.235C540.638 695.172 515.075 697.047 490.913 708.999C485.759 711.698 480.856 714.799 476.001 718C471.07 714.896 466.419 711.602 461.938 707.875C452.561 700.082 442.719 692.89 432.751 685.875C427.321 682.047 422.239 677.919 417.173 673.617C413.038 670.156 408.697 666.974 404.369 663.76C398.964 659.741 393.627 655.64 388.313 651.5C387.559 650.913 386.805 650.325 386.028 649.72C384.016 648.15 382.005 646.579 380.001 645C379.148 644.525 378.295 644.049 377.416 643.56C373.678 639.599 374.318 635.757 374.386 630.497C374.377 628.867 374.377 628.867 374.368 627.204C374.355 623.53 374.377 619.858 374.399 616.184C374.397 613.537 374.393 610.889 374.387 608.242C374.376 602.47 374.384 596.698 374.405 590.926C374.435 582.343 374.436 573.76 374.432 565.177C374.425 550.74 374.442 536.303 374.472 521.867C374.502 507.568 374.521 493.27 374.526 478.972C374.527 478.083 374.527 477.195 374.527 476.28C374.529 471.768 374.531 467.257 374.532 462.745C374.543 430.775 374.576 398.804 374.624 366.833C374.669 335.771 374.705 304.708 374.726 273.645C374.727 271.692 374.729 269.74 374.73 267.787C374.741 251.921 374.751 236.055 374.761 220.19C374.808 146.793 374.909 73.3966 375.001 0Z" fill="#010101"/>
<path d="M1070 292C1068.1 324.026 1061.99 353.726 1050.81 383.831C1050.07 385.803 1049.36 387.782 1048.65 389.762C1041.82 407.922 1032.1 425.124 1021 441C1020.54 441.666 1020.07 442.331 1019.6 443.017C1013.46 451.736 1006.75 459.655 999.363 467.341C995.813 471.036 992.478 474.776 989.312 478.813C975.787 495.694 955.896 509.793 937.308 520.567C934.026 522.605 931.056 524.977 928.046 527.395C926.245 528.808 924.426 530.079 922.5 531.313C919.916 532.759 919.916 532.759 919 535C919.567 535.263 920.134 535.526 920.718 535.797C923.178 537.094 925.271 538.586 927.5 540.25C932.036 543.595 936.628 546.844 941.258 550.058C949.425 555.731 957.524 561.435 965.298 567.643C966.523 568.62 967.754 569.592 968.986 570.561C983.134 581.697 994.767 593.954 1006 608C1006.73 608.869 1007.45 609.738 1008.2 610.633C1027.52 633.759 1042.46 659.415 1052.28 687.917C1052.79 689.391 1053.3 690.863 1053.82 692.333C1078.67 763.05 1074.42 839.586 1044 908C1037.45 921.632 1029.86 934.741 1021 947C1020.52 947.665 1020.04 948.33 1019.55 949.014C1013.46 957.431 1007.12 965.418 1000 973C998.288 974.873 996.58 976.748 994.875 978.625C994.039 979.54 993.204 980.456 992.343 981.399C990.313 983.652 988.338 985.939 986.375 988.25C982.893 992.239 979.046 995.598 975 999C973.613 1000.22 973.613 1000.22 972.199 1001.46C945.822 1024.51 914.737 1040.94 882 1053C881.179 1053.31 880.359 1053.61 879.513 1053.92C848.152 1065.44 815.56 1068.7 782.409 1068.27C778.734 1068.23 775.058 1068.22 771.382 1068.2C764.255 1068.15 757.127 1068.09 750 1068C749.88 1021.29 749.768 974.577 749.703 927.865C749.702 927.174 749.701 926.483 749.7 925.771C749.679 910.749 749.66 895.728 749.642 880.706C749.633 873.34 749.624 865.973 749.615 858.607C749.614 857.874 749.613 857.141 749.612 856.385C749.582 832.62 749.53 808.855 749.465 785.089C749.399 760.669 749.356 736.25 749.342 711.83C749.34 708.382 749.338 704.934 749.335 701.486C749.335 700.807 749.335 700.128 749.334 699.429C749.326 688.499 749.293 677.57 749.252 666.64C749.211 655.655 749.195 644.67 749.205 633.685C749.21 627.732 749.203 621.779 749.165 615.826C749.131 610.378 749.129 604.932 749.153 599.484C749.156 597.511 749.147 595.537 749.125 593.564C748.971 578.778 748.971 578.778 751.519 574.374C753.256 572.629 754.966 571.369 757 570C758.496 568.252 758.496 568.252 759.703 566.492C760.329 565.611 760.329 565.611 760.967 564.712C761.39 564.106 761.814 563.5 762.25 562.875C766.705 556.645 771.452 550.781 776.449 544.981C778.691 542.36 780.861 539.705 783 537C789.091 529.323 795.415 521.822 802 514.563C806.882 509.125 811.309 503.328 815.785 497.557C816.859 496.18 817.95 494.816 819.043 493.453C821.263 490.67 823.41 487.836 825.562 485C832.168 476.366 839.154 468.076 846.5 460.063C850.47 455.698 854.09 451.124 857.696 446.46C861.065 442.126 864.581 437.951 868.187 433.813C872.398 428.972 876.243 424.003 879.957 418.766C884.459 412.671 889.527 407.009 894.486 401.284C900.451 394.398 906.274 387.456 911.853 380.253C915.135 376.037 918.558 371.97 922.062 367.938C925.862 363.564 929.509 359.125 933 354.5C937.027 349.163 941.294 344.079 945.673 339.026C949.25 334.894 952.706 330.685 956.097 326.399C959.216 322.467 962.405 318.592 965.591 314.715C966.639 313.439 967.686 312.163 968.732 310.887C970.633 308.57 972.535 306.253 974.437 303.938C975.053 303.187 975.668 302.436 976.303 301.662C976.882 300.958 977.461 300.253 978.058 299.528C978.577 298.896 979.096 298.264 979.63 297.613C981 296 981 296 983 294C989.078 294.525 995.056 296.57 1000.92 298.184C1021.81 303.818 1041.99 301.184 1061.88 293.25C1062.65 292.946 1063.42 292.642 1064.21 292.328C1064.89 292.049 1065.58 291.769 1066.28 291.482C1068 291 1068 291 1070 292Z" fill="#207FD1"/>
<path d="M2 0C107.6 0 213.2 0 322 0C322 197.67 322 395.34 322 599C318.025 598.006 316.394 597.033 313.25 594.562C312.051 593.636 312.051 593.636 310.828 592.691C310.225 592.133 309.622 591.575 309 591C309 590.34 309 589.68 309 589C308.414 588.724 307.827 588.448 307.223 588.163C305.101 587.053 303.323 585.846 301.426 584.391C300.757 583.883 300.089 583.375 299.4 582.852C298.711 582.323 298.022 581.795 297.312 581.25C293.135 578.05 288.951 574.931 284.547 572.047C279.817 568.933 275.378 565.509 270.938 562C269.426 560.812 267.915 559.624 266.402 558.438C265.676 557.868 264.951 557.298 264.203 556.711C260.835 554.095 257.423 551.542 254 549C254.778 542.712 256.348 536.82 258.062 530.719C263.82 507.882 258.751 482.522 248.375 461.746C234.532 438.885 211.456 421.108 185.615 414.025C159.178 407.653 132.121 413.016 109.125 426.988C104.847 429.742 100.895 432.734 97 436C96.4225 436.433 95.845 436.866 95.25 437.312C76.3517 452.011 66.4139 477.578 63.4688 500.57C61.3266 519.663 64.9136 541.333 75.3477 557.805C77 561 77 561 76.4531 563.191C75.9736 563.788 75.4941 564.385 75 565C74.4998 565.648 73.9997 566.297 73.4844 566.965C69.8922 571.051 66.1857 574.512 62 578C60.2591 579.905 58.5911 581.863 56.918 583.828C54.8653 586.153 52.7094 588.324 50.5 590.5C47.7138 593.249 45.0469 596.029 42.5 599C39.9531 601.971 37.2862 604.751 34.5 607.5C31.1076 610.852 27.9123 614.298 24.8008 617.91C11.5349 633.305 11.5349 633.305 4 640C3.34 640 2.68 640 2 640C2 428.8 2 217.6 2 0Z" fill="#010101"/>
<path d="M221.957 590.004C224.91 591.444 227.388 593.393 229.937 595.437C231.096 596.349 232.254 597.261 233.414 598.172C234.006 598.64 234.598 599.109 235.207 599.592C236.946 600.958 238.699 602.303 240.46 603.641C249.74 610.686 249.74 610.686 253.812 614.375C262.053 621.746 271.238 628.168 280.374 634.375C285.834 638.11 291.088 642.068 296.312 646.125C297.053 646.699 297.794 647.273 298.558 647.865C302.779 651.167 306.876 654.556 310.82 658.186C312.929 660.052 312.929 660.052 315.323 661.309C318.107 662.968 319.967 664.46 321.999 667C323.345 672.335 323.177 677.607 323.082 683.065C323.086 684.725 323.094 686.385 323.105 688.045C323.125 692.602 323.089 697.157 323.044 701.714C323.005 706.629 323.018 711.545 323.025 716.46C323.03 724.975 323.002 733.489 322.951 742.004C322.878 754.314 322.854 766.624 322.843 778.935C322.823 798.908 322.764 818.881 322.678 838.854C322.596 858.255 322.532 877.657 322.494 897.059C322.491 898.267 322.489 899.475 322.487 900.72C322.468 910.168 322.45 919.617 322.433 929.065C322.348 975.377 322.167 1021.69 321.999 1068C216.399 1068 110.799 1068 1.99948 1068C1.39451 980.772 1.39451 980.772 1.26706 944.318C1.2377 935.975 1.20739 927.631 1.17551 919.288C1.17155 918.242 1.16759 917.196 1.16352 916.119C1.09834 899.254 0.980127 882.39 0.842197 865.525C0.701748 848.208 0.618563 830.891 0.588154 813.573C0.567607 802.893 0.502812 792.215 0.380741 781.535C0.301231 774.204 0.277537 766.874 0.29697 759.543C0.306547 755.317 0.292244 751.095 0.211399 746.869C-0.297805 718.907 -0.297804 718.907 7.29247 710.57C9.82908 708.23 12.4545 706.167 15.3017 704.22C17.539 702.612 19.2189 700.704 20.937 698.562C23.7935 695.18 26.8813 692.101 30.0346 688.996C31.9218 687.079 33.6863 685.104 35.437 683.062C38.0061 680.072 40.6927 677.269 43.4995 674.5C46.2857 671.751 48.9526 668.971 51.4995 666C54.7511 662.206 58.2566 658.726 61.812 655.219C63.7967 653.206 65.6605 651.145 67.4995 649C70.7499 645.208 74.254 641.729 77.8081 638.223C80.4205 635.573 82.8325 632.788 85.2534 629.965C87.7255 627.183 90.3838 624.606 93.0346 621.996C94.9218 620.079 96.6863 618.104 98.437 616.062C101.757 612.193 105.329 608.631 108.984 605.078C110.853 603.15 112.444 601.185 113.999 599C118.749 599.594 122.617 600.976 126.999 602.875C149.814 612.19 175.436 611.78 198.254 602.619C205.306 599.641 211.407 596.002 217.546 591.406C219.999 590 219.999 590 221.957 590.004Z" fill="#1E78C6"/>
<path d="M694 646C694.66 646 695.32 646 696 646C696 785.26 696 924.52 696 1068C590.07 1068 484.14 1068 375 1068C375 949.53 375 831.06 375 709C378.703 709.926 379.907 710.451 382.73 712.703C383.443 713.265 384.155 713.827 384.889 714.406C385.648 715.015 386.406 715.623 387.188 716.25C388.803 717.527 390.419 718.803 392.035 720.078C392.858 720.73 393.68 721.381 394.528 722.053C398.364 725.074 402.242 728.039 406.125 731C406.798 731.515 407.471 732.029 408.165 732.56C408.814 733.056 409.464 733.552 410.133 734.062C411.075 734.784 411.075 734.784 412.036 735.52C413.435 736.574 414.848 737.612 416.269 738.637C417.369 739.435 417.369 739.435 418.492 740.25C419.164 740.73 419.835 741.209 420.527 741.703C421.013 742.131 421.499 742.559 422 743C422 743.66 422 744.32 422 745C422.98 745.306 422.98 745.306 423.98 745.617C428.206 747.552 431.643 750.299 435.312 753.125C436.423 753.97 436.423 753.97 437.557 754.832C439.375 756.216 441.189 757.606 443 759C442.128 764.895 440.537 770.514 438.938 776.246C432.698 801.232 438.816 826.866 451.125 848.938C457.192 858.847 465.524 868.386 475.125 875C476.074 875.66 477.022 876.32 478 877C478 877.66 478 878.32 478 879C478.684 879.251 479.369 879.503 480.074 879.762C482.825 880.926 485.367 882.291 487.96 883.767C496.344 888.498 504.706 891.566 514 894C514.896 894.246 515.792 894.492 516.715 894.746C541.213 900.358 567.463 893.883 588.668 881.281C594.369 877.546 599.189 872.797 604 868C604.859 867.147 605.717 866.293 606.602 865.414C607.393 864.617 608.185 863.821 609 863C609.646 862.352 610.292 861.703 610.957 861.035C627.689 843.246 635.26 818.053 635 794C634.216 774.376 627.189 756.581 617 740C622.575 732.779 628.218 725.65 634.188 718.75C641.341 710.475 648.087 702.042 654.336 693.055C655.16 692.038 655.16 692.038 656 691C656.66 691 657.32 691 658 691C658.342 690.192 658.342 690.192 658.691 689.367C660.396 686.283 662.63 683.764 664.938 681.125C668.897 676.528 672.723 671.86 676.438 667.062C680.379 661.997 684.415 657.023 688.562 652.125C689.075 651.511 689.588 650.898 690.117 650.266C691.366 648.804 692.678 647.396 694 646Z" fill="#2283D5"/>
<path d="M750 0C814.971 0 877.477 2.44519 933 39C933.795 39.519 934.59 40.038 935.409 40.5728C945.854 47.4042 956.147 54.3316 966 62C966.758 62.5659 967.516 63.1318 968.297 63.7148C978.927 71.7248 988.31 80.9395 997 91C997.646 91.7444 997.646 91.7444 998.304 92.5039C1006 101.43 1006 101.43 1006 105C1005.09 105.245 1004.18 105.49 1003.24 105.742C994.852 108.116 986.952 111.166 979.062 114.875C978.2 115.273 977.337 115.671 976.448 116.082C970.329 119.03 965.214 122.666 960 127C959.176 127.652 958.353 128.305 957.504 128.977C939.695 144.098 929.052 167.068 926 190C924.928 204.742 925.514 218.896 930 233C930.374 234.24 930.748 235.48 931.133 236.758C933.44 243.831 936.367 249.672 940.742 255.695C942 258 942 258 941.891 260.043C940.82 262.396 939.507 264.179 937.875 266.188C937.241 266.976 936.607 267.765 935.953 268.578C935.309 269.377 934.664 270.177 934 271C932.873 272.478 931.748 273.957 930.625 275.438C928.128 278.656 925.505 281.688 922.75 284.688C919.198 288.576 915.908 292.59 912.688 296.75C908.856 301.7 904.91 306.517 900.812 311.25C896.838 315.843 892.956 320.481 889.188 325.246C886.339 328.832 883.452 332.385 880.562 335.938C879.718 336.976 879.718 336.976 878.857 338.035C874.249 343.699 869.627 349.352 865 355C864.321 355.831 863.641 356.663 862.941 357.52C857.699 363.935 852.436 370.334 847.165 376.725C844.572 379.87 841.981 383.015 839.418 386.184C835.865 390.57 832.26 394.846 828.438 399C825.497 402.228 822.837 405.501 820.312 409.062C815.2 416.26 809.514 422.971 803.869 429.752C800.795 433.449 797.742 437.163 794.688 440.875C794.1 441.587 793.513 442.299 792.909 443.032C790.418 446.054 787.931 449.077 785.473 452.125C781.801 456.667 778.055 461.048 774.062 465.312C769.785 469.949 766.156 474.827 762.557 479.988C756.032 489.311 756.032 489.311 752 493C751.34 493 750.68 493 750 493C750 330.31 750 167.62 750 0Z" fill="#020202"/>
<path d="M565.351 760.75C574.076 767.986 579.812 777.832 581.999 789C583.019 804.784 580.376 816.549 570.327 829.086C562.343 837.992 550.476 843.135 538.687 844.211C525.025 844.78 512.289 840.014 502.187 830.812C493.085 820.82 488.192 808.064 488.718 794.523C490.338 779.986 496.544 768.186 507.999 759C526.359 747.572 547.878 747.747 565.351 760.75Z" fill="#2580CD"/>
<path d="M187.89 471.473C190.612 473.444 192.804 475.448 194.999 478C195.829 478.919 195.829 478.919 196.675 479.856C205.022 489.668 208.478 501.192 207.999 514C206.969 522.515 204.944 529.956 199.999 537C199.383 537.906 198.767 538.813 198.132 539.746C191.606 548.555 182.514 554.989 171.492 556.785C156.62 558.067 144.391 556.58 132.433 547.121C123.96 539.736 116.833 529.53 115.822 517.976C115.426 504.144 116.666 493.495 124.999 482C125.417 481.406 125.835 480.812 126.265 480.199C140.755 461.421 168.737 458.999 187.89 471.473Z" fill="#2073BC"/>
<path d="M1048.89 162.918C1060.11 171.565 1068.07 181.751 1070 196C1070.94 209.962 1068.44 221.995 1059.41 232.93C1051 241.854 1041.28 247.723 1028.89 248.469C1027.15 248.503 1025.42 248.513 1023.69 248.5C1022.32 248.493 1022.32 248.493 1020.92 248.485C1008.59 248.169 998.47 243.773 989.915 234.816C980.31 223.659 977.116 211.482 977.812 196.981C978.535 189.367 981.264 181.991 986 176C986.408 175.379 986.815 174.757 987.235 174.117C992.837 165.84 1000.85 160.509 1010.4 157.66C1023.36 155.284 1037.65 155.454 1048.89 162.918Z" fill="#1E72BC"/>
<path d="M983 294C984.32 294.33 985.64 294.66 987 295C984.36 296.98 981.72 298.96 979 301C980.27 295.921 980.27 295.921 983 294Z" fill="#7BABD5"/>
<path d="M131 475C131.66 475 132.32 475 133 475C131.707 477.884 130.341 479.872 128 482C127.34 481.67 126.68 481.34 126 481C127.616 478.959 129.286 476.959 131 475Z" fill="#639AD2"/>
<path d="M693 647C693.66 647 694.32 647 695 647C693.707 649.884 692.341 651.872 690 654C689.34 653.67 688.68 653.34 688 653C689.616 650.959 691.286 648.959 693 647Z" fill="#6BA3DB"/>
</svg>
