<svg width="3028" height="1719" viewBox="0 0 3028 1719" fill="none" xmlns="http://www.w3.org/2000/svg">
<path d="M1353 0C1458.93 0 1564.86 0 1674 0C1674.49 140.675 1674.49 140.675 1674.58 194.563C1674.6 208.654 1674.63 222.745 1674.66 236.836C1674.66 238.54 1674.66 240.245 1674.66 241.949C1674.72 269.113 1674.81 296.277 1674.92 323.44C1675.03 351.362 1675.1 379.283 1675.13 407.205C1675.13 411.15 1675.14 415.095 1675.14 419.04C1675.14 420.205 1675.14 420.205 1675.14 421.393C1675.16 433.884 1675.21 446.375 1675.28 458.865C1675.35 471.428 1675.38 483.989 1675.36 496.552C1675.35 503.357 1675.37 510.16 1675.43 516.965C1675.49 523.198 1675.49 529.429 1675.45 535.662C1675.45 537.914 1675.46 540.166 1675.5 542.418C1675.79 560.98 1675.79 560.98 1669.76 568.006C1667.3 570.512 1664.69 572.745 1662 575C1660.22 576.972 1660.22 576.972 1658.84 578.84C1654.33 584.8 1649.71 590.6 1644.81 596.25C1638.44 603.625 1632.35 611.152 1626.56 619C1623.07 623.698 1619.34 628.018 1615.37 632.32C1612.67 635.368 1610.18 638.532 1607.69 641.75C1603.92 646.619 1600.04 651.352 1596 656C1591.53 661.154 1587.26 666.428 1583.07 671.82C1579.55 676.347 1575.88 680.726 1572.15 685.082C1568.14 689.784 1564.31 694.623 1560.53 699.508C1558.76 701.781 1557.04 703.963 1555 706C1551.31 705.616 1547.85 704.355 1544.33 703.235C1518.64 695.172 1493.07 697.047 1468.91 708.999C1463.76 711.698 1458.86 714.799 1454 718C1449.07 714.896 1444.42 711.602 1439.94 707.875C1430.56 700.082 1420.72 692.89 1410.75 685.875C1405.32 682.047 1400.24 677.919 1395.17 673.617C1391.04 670.156 1386.7 666.974 1382.37 663.76C1376.96 659.741 1371.63 655.64 1366.31 651.5C1365.56 650.913 1364.8 650.325 1364.03 649.72C1362.02 648.15 1360.01 646.579 1358 645C1357.15 644.525 1356.3 644.049 1355.42 643.56C1351.68 639.599 1352.32 635.757 1352.39 630.497C1352.38 628.867 1352.38 628.867 1352.37 627.204C1352.35 623.53 1352.38 619.858 1352.4 616.184C1352.4 613.537 1352.39 610.889 1352.39 608.242C1352.38 602.47 1352.38 596.698 1352.4 590.926C1352.43 582.343 1352.44 573.76 1352.43 565.177C1352.43 550.74 1352.44 536.303 1352.47 521.867C1352.5 507.568 1352.52 493.27 1352.53 478.972C1352.53 478.083 1352.53 477.195 1352.53 476.28C1352.53 471.768 1352.53 467.257 1352.53 462.745C1352.54 430.775 1352.58 398.804 1352.62 366.833C1352.67 335.771 1352.7 304.708 1352.73 273.645C1352.73 271.692 1352.73 269.74 1352.73 267.787C1352.74 251.921 1352.75 236.055 1352.76 220.19C1352.81 146.793 1352.91 73.3966 1353 0Z" fill="#010101"/>
<path d="M2048 292C2046.1 324.026 2039.99 353.726 2028.81 383.831C2028.07 385.803 2027.36 387.782 2026.65 389.762C2019.82 407.922 2010.1 425.124 1999 441C1998.54 441.666 1998.07 442.331 1997.6 443.017C1991.46 451.736 1984.75 459.655 1977.36 467.341C1973.81 471.036 1970.48 474.776 1967.31 478.813C1953.79 495.694 1933.9 509.793 1915.31 520.567C1912.03 522.605 1909.06 524.977 1906.05 527.395C1904.24 528.808 1902.43 530.079 1900.5 531.313C1897.92 532.759 1897.92 532.759 1897 535C1897.57 535.263 1898.13 535.526 1898.72 535.797C1901.18 537.094 1903.27 538.586 1905.5 540.25C1910.04 543.595 1914.63 546.844 1919.26 550.058C1927.43 555.731 1935.52 561.435 1943.3 567.643C1944.52 568.62 1945.75 569.592 1946.99 570.561C1961.13 581.697 1972.77 593.954 1984 608C1984.73 608.869 1985.45 609.738 1986.2 610.633C2005.52 633.759 2020.46 659.415 2030.28 687.917C2030.79 689.391 2031.3 690.863 2031.82 692.333C2056.67 763.05 2052.42 839.586 2022 908C2015.45 921.632 2007.86 934.741 1999 947C1998.52 947.665 1998.04 948.33 1997.55 949.014C1991.46 957.431 1985.12 965.418 1978 973C1976.29 974.873 1974.58 976.748 1972.87 978.625C1972.04 979.54 1971.2 980.456 1970.34 981.399C1968.31 983.652 1966.34 985.939 1964.37 988.25C1960.89 992.239 1957.05 995.598 1953 999C1951.61 1000.22 1951.61 1000.22 1950.2 1001.46C1923.82 1024.51 1892.74 1040.94 1860 1053C1859.18 1053.31 1858.36 1053.61 1857.51 1053.92C1826.15 1065.44 1793.56 1068.7 1760.41 1068.27C1756.73 1068.23 1753.06 1068.22 1749.38 1068.2C1742.25 1068.15 1735.13 1068.09 1728 1068C1727.88 1021.29 1727.77 974.577 1727.7 927.865C1727.7 927.174 1727.7 926.483 1727.7 925.771C1727.68 910.749 1727.66 895.728 1727.64 880.706C1727.63 873.34 1727.62 865.973 1727.62 858.607C1727.61 857.874 1727.61 857.141 1727.61 856.385C1727.58 832.62 1727.53 808.855 1727.47 785.089C1727.4 760.669 1727.36 736.25 1727.34 711.83C1727.34 708.382 1727.34 704.934 1727.34 701.486C1727.33 700.807 1727.33 700.128 1727.33 699.429C1727.33 688.499 1727.29 677.57 1727.25 666.64C1727.21 655.655 1727.2 644.67 1727.21 633.685C1727.21 627.732 1727.2 621.779 1727.17 615.826C1727.13 610.378 1727.13 604.932 1727.15 599.484C1727.16 597.511 1727.15 595.537 1727.13 593.564C1726.97 578.778 1726.97 578.778 1729.52 574.374C1731.26 572.629 1732.97 571.369 1735 570C1736.5 568.252 1736.5 568.252 1737.7 566.492C1738.33 565.611 1738.33 565.611 1738.97 564.712C1739.39 564.106 1739.81 563.5 1740.25 562.875C1744.71 556.645 1749.45 550.781 1754.45 544.981C1756.69 542.36 1758.86 539.705 1761 537C1767.09 529.323 1773.41 521.822 1780 514.563C1784.88 509.125 1789.31 503.328 1793.78 497.557C1794.86 496.18 1795.95 494.816 1797.04 493.453C1799.26 490.67 1801.41 487.836 1803.56 485C1810.17 476.366 1817.15 468.076 1824.5 460.063C1828.47 455.698 1832.09 451.124 1835.7 446.46C1839.06 442.126 1842.58 437.951 1846.19 433.813C1850.4 428.972 1854.24 424.003 1857.96 418.766C1862.46 412.671 1867.53 407.009 1872.49 401.284C1878.45 394.398 1884.27 387.456 1889.85 380.253C1893.14 376.037 1896.56 371.97 1900.06 367.938C1903.86 363.564 1907.51 359.125 1911 354.5C1915.03 349.163 1919.29 344.079 1923.67 339.026C1927.25 334.894 1930.71 330.685 1934.1 326.399C1937.22 322.467 1940.4 318.592 1943.59 314.715C1944.64 313.439 1945.69 312.163 1946.73 310.887C1948.63 308.57 1950.53 306.253 1952.44 303.938C1953.05 303.187 1953.67 302.436 1954.3 301.662C1954.88 300.958 1955.46 300.253 1956.06 299.528C1956.58 298.896 1957.1 298.264 1957.63 297.613C1959 296 1959 296 1961 294C1967.08 294.525 1973.06 296.57 1978.92 298.184C1999.81 303.818 2019.99 301.184 2039.88 293.25C2040.65 292.946 2041.42 292.642 2042.21 292.328C2042.89 292.049 2043.58 291.769 2044.28 291.482C2046 291 2046 291 2048 292Z" fill="#207FD1"/>
<path d="M980 0C1085.6 0 1191.2 0 1300 0C1300 197.67 1300 395.34 1300 599C1296.02 598.006 1294.39 597.033 1291.25 594.562C1290.05 593.636 1290.05 593.636 1288.83 592.691C1288.22 592.133 1287.62 591.575 1287 591C1287 590.34 1287 589.68 1287 589C1286.41 588.724 1285.83 588.448 1285.22 588.163C1283.1 587.053 1281.32 585.846 1279.43 584.391C1278.76 583.883 1278.09 583.375 1277.4 582.852C1276.71 582.323 1276.02 581.795 1275.31 581.25C1271.14 578.05 1266.95 574.931 1262.55 572.047C1257.82 568.933 1253.38 565.509 1248.94 562C1247.43 560.812 1245.91 559.624 1244.4 558.438C1243.68 557.868 1242.95 557.298 1242.2 556.711C1238.84 554.095 1235.42 551.542 1232 549C1232.78 542.712 1234.35 536.82 1236.06 530.719C1241.82 507.882 1236.75 482.522 1226.38 461.746C1212.53 438.885 1189.46 421.108 1163.62 414.025C1137.18 407.653 1110.12 413.016 1087.12 426.988C1082.85 429.742 1078.89 432.734 1075 436C1074.42 436.433 1073.85 436.866 1073.25 437.312C1054.35 452.011 1044.41 477.578 1041.47 500.57C1039.33 519.663 1042.91 541.333 1053.35 557.805C1055 561 1055 561 1054.45 563.191C1053.97 563.788 1053.49 564.385 1053 565C1052.5 565.648 1052 566.297 1051.48 566.965C1047.89 571.051 1044.19 574.512 1040 578C1038.26 579.905 1036.59 581.863 1034.92 583.828C1032.87 586.153 1030.71 588.324 1028.5 590.5C1025.71 593.249 1023.05 596.029 1020.5 599C1017.95 601.971 1015.29 604.751 1012.5 607.5C1009.11 610.852 1005.91 614.298 1002.8 617.91C989.535 633.305 989.535 633.305 982 640C981.34 640 980.68 640 980 640C980 428.8 980 217.6 980 0Z" fill="#010101"/>
<path d="M1199.96 590.004C1202.91 591.444 1205.39 593.393 1207.94 595.437C1209.1 596.349 1210.25 597.261 1211.41 598.172C1212.01 598.64 1212.6 599.109 1213.21 599.592C1214.95 600.958 1216.7 602.303 1218.46 603.641C1227.74 610.686 1227.74 610.686 1231.81 614.375C1240.05 621.746 1249.24 628.168 1258.37 634.375C1263.83 638.11 1269.09 642.068 1274.31 646.125C1275.05 646.699 1275.79 647.273 1276.56 647.865C1280.78 651.167 1284.88 654.556 1288.82 658.186C1290.93 660.052 1290.93 660.052 1293.32 661.309C1296.11 662.968 1297.97 664.46 1300 667C1301.35 672.335 1301.18 677.607 1301.08 683.065C1301.09 684.725 1301.09 686.385 1301.11 688.045C1301.13 692.602 1301.09 697.157 1301.04 701.714C1301.01 706.629 1301.02 711.545 1301.03 716.46C1301.03 724.975 1301 733.489 1300.95 742.004C1300.88 754.314 1300.85 766.624 1300.84 778.935C1300.82 798.908 1300.76 818.881 1300.68 838.854C1300.6 858.255 1300.53 877.657 1300.49 897.059C1300.49 898.267 1300.49 899.475 1300.49 900.72C1300.47 910.168 1300.45 919.617 1300.43 929.065C1300.35 975.377 1300.17 1021.69 1300 1068C1194.4 1068 1088.8 1068 979.999 1068C979.395 980.772 979.395 980.772 979.267 944.318C979.238 935.975 979.207 927.631 979.176 919.288C979.172 918.242 979.168 917.196 979.164 916.119C979.098 899.254 978.98 882.39 978.842 865.525C978.702 848.208 978.619 830.891 978.588 813.573C978.568 802.893 978.503 792.215 978.381 781.535C978.301 774.204 978.278 766.874 978.297 759.543C978.307 755.317 978.292 751.095 978.211 746.869C977.702 718.907 977.702 718.907 985.292 710.57C987.829 708.23 990.454 706.167 993.302 704.22C995.539 702.612 997.219 700.704 998.937 698.562C1001.79 695.18 1004.88 692.101 1008.03 688.996C1009.92 687.079 1011.69 685.104 1013.44 683.062C1016.01 680.072 1018.69 677.269 1021.5 674.5C1024.29 671.751 1026.95 668.971 1029.5 666C1032.75 662.206 1036.26 658.726 1039.81 655.219C1041.8 653.206 1043.66 651.145 1045.5 649C1048.75 645.208 1052.25 641.729 1055.81 638.223C1058.42 635.573 1060.83 632.788 1063.25 629.965C1065.73 627.183 1068.38 624.606 1071.03 621.996C1072.92 620.079 1074.69 618.104 1076.44 616.062C1079.76 612.193 1083.33 608.631 1086.98 605.078C1088.85 603.15 1090.44 601.185 1092 599C1096.75 599.594 1100.62 600.976 1105 602.875C1127.81 612.19 1153.44 611.78 1176.25 602.619C1183.31 599.641 1189.41 596.002 1195.55 591.406C1198 590 1198 590 1199.96 590.004Z" fill="#1E78C6"/>
<path d="M1672 646C1672.66 646 1673.32 646 1674 646C1674 785.26 1674 924.52 1674 1068C1568.07 1068 1462.14 1068 1353 1068C1353 949.53 1353 831.06 1353 709C1356.7 709.926 1357.91 710.451 1360.73 712.703C1361.44 713.265 1362.16 713.827 1362.89 714.406C1363.65 715.015 1364.41 715.623 1365.19 716.25C1366.8 717.527 1368.42 718.803 1370.04 720.078C1370.86 720.73 1371.68 721.381 1372.53 722.053C1376.36 725.074 1380.24 728.039 1384.12 731C1384.8 731.515 1385.47 732.029 1386.16 732.56C1386.81 733.056 1387.46 733.552 1388.13 734.062C1389.07 734.784 1389.07 734.784 1390.04 735.52C1391.44 736.574 1392.85 737.612 1394.27 738.637C1395.37 739.435 1395.37 739.435 1396.49 740.25C1397.16 740.73 1397.84 741.209 1398.53 741.703C1399.01 742.131 1399.5 742.559 1400 743C1400 743.66 1400 744.32 1400 745C1400.98 745.306 1400.98 745.306 1401.98 745.617C1406.21 747.552 1409.64 750.299 1413.31 753.125C1414.42 753.97 1414.42 753.97 1415.56 754.832C1417.38 756.216 1419.19 757.606 1421 759C1420.13 764.895 1418.54 770.514 1416.94 776.246C1410.7 801.232 1416.82 826.866 1429.12 848.938C1435.19 858.847 1443.52 868.386 1453.12 875C1454.07 875.66 1455.02 876.32 1456 877C1456 877.66 1456 878.32 1456 879C1456.68 879.251 1457.37 879.503 1458.07 879.762C1460.82 880.926 1463.37 882.291 1465.96 883.767C1474.34 888.498 1482.71 891.566 1492 894C1492.9 894.246 1493.79 894.492 1494.71 894.746C1519.21 900.358 1545.46 893.883 1566.67 881.281C1572.37 877.546 1577.19 872.797 1582 868C1582.86 867.147 1583.72 866.293 1584.6 865.414C1585.39 864.617 1586.18 863.821 1587 863C1587.65 862.352 1588.29 861.703 1588.96 861.035C1605.69 843.246 1613.26 818.053 1613 794C1612.22 774.376 1605.19 756.581 1595 740C1600.57 732.779 1606.22 725.65 1612.19 718.75C1619.34 710.475 1626.09 702.042 1632.34 693.055C1633.16 692.038 1633.16 692.038 1634 691C1634.66 691 1635.32 691 1636 691C1636.34 690.192 1636.34 690.192 1636.69 689.367C1638.4 686.283 1640.63 683.764 1642.94 681.125C1646.9 676.528 1650.72 671.86 1654.44 667.062C1658.38 661.997 1662.41 657.023 1666.56 652.125C1667.08 651.511 1667.59 650.898 1668.12 650.266C1669.37 648.804 1670.68 647.396 1672 646Z" fill="#2283D5"/>
<path d="M0 1248C47.7984 1247.91 47.7984 1247.91 96.5625 1247.81C111.597 1247.77 111.597 1247.77 126.936 1247.73C139.273 1247.72 139.273 1247.72 145.068 1247.71C149.074 1247.71 153.079 1247.7 157.085 1247.68C185.222 1247.57 211.766 1248.17 239 1256C239.691 1256.19 240.381 1256.39 241.093 1256.59C254.655 1260.44 266.274 1266.86 277 1276C277.798 1276.64 278.596 1277.28 279.418 1277.95C295.475 1291.44 304.951 1310.9 307.75 1331.56C307.863 1333.04 307.943 1334.52 308 1336C308.04 1337.02 308.08 1338.04 308.121 1339.09C308.626 1365.48 301.375 1388.68 283.179 1408.05C277.412 1413.9 270.863 1418.53 264 1423C268.241 1425.2 272.388 1427.17 276.875 1428.81C293.989 1435.56 310.448 1452.41 318 1469C329.236 1498.52 328.864 1530.09 316.66 1559.2C307.148 1578.11 290.038 1590.83 271 1599C270.282 1599.31 269.565 1599.62 268.826 1599.94C238.94 1612.51 206.272 1614.18 174.261 1614.11C172.317 1614.11 170.373 1614.11 168.428 1614.11C163.274 1614.11 158.121 1614.11 152.967 1614.1C148.11 1614.1 143.254 1614.1 138.398 1614.09C124.244 1614.09 110.091 1614.08 95.9375 1614.06C64.2781 1614.04 32.6188 1614.02 0 1614C0 1493.22 0 1372.44 0 1248ZM70 1303C70 1335.34 70 1367.68 70 1401C88.5293 1401.09 88.5293 1401.09 107.059 1401.15C114.631 1401.16 122.203 1401.19 129.776 1401.23C135.89 1401.26 142.005 1401.28 148.119 1401.28C150.436 1401.29 152.753 1401.3 155.069 1401.32C182.2 1401.56 182.2 1401.56 208 1394C208.908 1393.58 209.815 1393.16 210.75 1392.73C221.409 1387.37 230.439 1379.83 234.961 1368.62C238.967 1356.3 238.383 1342.01 232.711 1330.35C225.916 1318.25 215.844 1311.44 202.717 1307.28C191.888 1304.28 181.243 1302.85 170.016 1302.89C168.932 1302.89 167.849 1302.89 166.732 1302.89C163.166 1302.89 159.601 1302.89 156.035 1302.9C153.557 1302.9 151.078 1302.91 148.599 1302.91C142.087 1302.91 135.576 1302.92 129.064 1302.93C121.244 1302.94 113.425 1302.95 105.606 1302.95C93.737 1302.96 81.8685 1302.98 70 1303ZM70 1456C70 1489.99 70 1523.98 70 1559C89.5225 1559.06 89.5225 1559.06 109.045 1559.1C117.025 1559.11 125.006 1559.12 132.986 1559.15C139.431 1559.17 145.876 1559.18 152.321 1559.19C154.761 1559.19 157.201 1559.2 159.641 1559.21C171.662 1559.26 183.603 1559.14 195.588 1558.12C196.957 1558.01 196.958 1558.01 198.355 1557.89C215.386 1556.28 236.043 1550.42 247.672 1537.08C256.164 1525.54 257.385 1511.85 256 1498C254.455 1489.13 251.206 1482.49 245 1476C244.341 1475.3 243.683 1474.6 243.004 1473.88C227.926 1459.22 204.186 1455.65 183.979 1455.77C182.739 1455.77 181.499 1455.77 180.221 1455.77C176.86 1455.77 173.499 1455.78 170.138 1455.8C166.611 1455.81 163.084 1455.81 159.556 1455.81C152.895 1455.82 146.234 1455.84 139.572 1455.86C130.558 1455.88 121.544 1455.89 112.529 1455.9C98.3527 1455.92 84.1764 1455.96 70 1456Z" fill="#040404"/>
<path d="M1728 0C1792.97 0 1855.48 2.44519 1911 39C1911.79 39.519 1912.59 40.038 1913.41 40.5728C1923.85 47.4042 1934.15 54.3316 1944 62C1944.76 62.5659 1945.52 63.1318 1946.3 63.7148C1956.93 71.7248 1966.31 80.9395 1975 91C1975.65 91.7444 1975.65 91.7444 1976.3 92.5039C1984 101.43 1984 101.43 1984 105C1983.09 105.245 1982.18 105.49 1981.24 105.742C1972.85 108.116 1964.95 111.166 1957.06 114.875C1956.2 115.273 1955.34 115.671 1954.45 116.082C1948.33 119.03 1943.21 122.666 1938 127C1937.18 127.652 1936.35 128.305 1935.5 128.977C1917.69 144.098 1907.05 167.068 1904 190C1902.93 204.742 1903.51 218.896 1908 233C1908.37 234.24 1908.75 235.48 1909.13 236.758C1911.44 243.831 1914.37 249.672 1918.74 255.695C1920 258 1920 258 1919.89 260.043C1918.82 262.396 1917.51 264.179 1915.88 266.188C1915.24 266.976 1914.61 267.765 1913.95 268.578C1913.31 269.377 1912.66 270.177 1912 271C1910.87 272.478 1909.75 273.957 1908.62 275.438C1906.13 278.656 1903.5 281.688 1900.75 284.688C1897.2 288.576 1893.91 292.59 1890.69 296.75C1886.86 301.7 1882.91 306.517 1878.81 311.25C1874.84 315.843 1870.96 320.481 1867.19 325.246C1864.34 328.832 1861.45 332.385 1858.56 335.938C1857.72 336.976 1857.72 336.976 1856.86 338.035C1852.25 343.699 1847.63 349.352 1843 355C1842.32 355.831 1841.64 356.663 1840.94 357.52C1835.7 363.935 1830.44 370.334 1825.16 376.725C1822.57 379.87 1819.98 383.015 1817.42 386.184C1813.87 390.57 1810.26 394.846 1806.44 399C1803.5 402.228 1800.84 405.501 1798.31 409.062C1793.2 416.26 1787.51 422.971 1781.87 429.752C1778.8 433.449 1775.74 437.163 1772.69 440.875C1772.1 441.587 1771.51 442.299 1770.91 443.032C1768.42 446.054 1765.93 449.077 1763.47 452.125C1759.8 456.667 1756.05 461.048 1752.06 465.312C1747.78 469.949 1744.16 474.827 1740.56 479.988C1734.03 489.311 1734.03 489.311 1730 493C1729.34 493 1728.68 493 1728 493C1728 330.31 1728 167.62 1728 0Z" fill="#020202"/>
<path d="M1258.86 1329.87C1300.19 1328.94 1335.88 1343.73 1365.73 1371.74C1371.23 1377.04 1375.78 1382.61 1380 1389C1380.37 1389.55 1380.74 1390.09 1381.11 1390.66C1386.1 1398.14 1390.01 1405.85 1393.38 1414.19C1393.86 1415.38 1393.86 1415.38 1394.35 1416.6C1398.4 1427.06 1400.49 1437.68 1401.69 1448.81C1401.81 1449.97 1401.94 1451.13 1402.07 1452.33C1403.52 1466.65 1403.59 1480.7 1402 1495C1330.06 1495 1258.12 1495 1184 1495C1193.78 1522.71 1204.26 1538.19 1230 1551C1256.27 1562.7 1287.39 1561.96 1314.19 1552.37C1326.64 1547.55 1339.12 1541.06 1347 1530C1349.96 1531.32 1351.92 1532.71 1354.1 1535.09C1354.95 1536.01 1354.95 1536.01 1355.82 1536.95C1356.71 1537.93 1356.71 1537.93 1357.63 1538.94C1358.25 1539.61 1358.87 1540.29 1359.5 1540.98C1360.76 1542.35 1362.01 1543.72 1363.26 1545.09C1364.77 1546.75 1366.29 1548.4 1367.82 1550.05C1385.12 1568.81 1385.12 1568.81 1385 1573C1383.4 1575.1 1381.9 1576.76 1380 1578.56C1379.19 1579.35 1379.19 1579.35 1378.36 1580.15C1367.51 1590.38 1355.58 1597.93 1342 1604C1340.81 1604.54 1339.62 1605.09 1338.39 1605.65C1331.23 1608.73 1324.07 1610.92 1316.5 1612.75C1315.68 1612.95 1314.87 1613.15 1314.02 1613.35C1299.79 1616.61 1285.84 1617.38 1271.31 1617.31C1270.43 1617.31 1269.54 1617.31 1268.63 1617.31C1255.9 1617.26 1243.43 1617.04 1231 1614C1229.73 1613.69 1229.73 1613.69 1228.44 1613.38C1205.29 1607.61 1183.3 1598.53 1165 1583C1164.46 1582.54 1163.91 1582.08 1163.35 1581.61C1150.15 1570.32 1140.39 1557.15 1132 1542C1131.43 1540.98 1130.87 1539.96 1130.29 1538.91C1112.78 1505.68 1111.68 1462.52 1122.61 1427.07C1130.38 1403.05 1143.13 1381.06 1163.16 1365.25C1165 1363.79 1166.81 1362.29 1168.59 1360.75C1193.63 1339.09 1226.58 1331.28 1258.86 1329.87ZM1204.66 1407.17C1200.61 1411.48 1197.25 1416.08 1194 1421C1193.53 1421.63 1193.06 1422.26 1192.58 1422.91C1189.44 1427.32 1187.82 1432.07 1186.19 1437.19C1185.97 1437.88 1185.75 1438.57 1185.52 1439.28C1184.37 1443.11 1184 1445.93 1184 1450C1235.48 1450 1286.96 1450 1340 1450C1335.34 1428.24 1325.32 1409.82 1306.38 1397.37C1274.01 1376.89 1232.19 1380.07 1204.66 1407.17Z" fill="#040404"/>
<path d="M605.496 1362.14C607.801 1364.26 610.078 1366.4 612.348 1368.56C614.737 1370.98 614.737 1370.98 617 1372C617 1372.66 617 1373.32 617 1374C617.66 1374 618.32 1374 619 1374C620.637 1375.86 622.138 1377.71 623.625 1379.69C624.07 1380.28 624.515 1380.86 624.974 1381.47C640.171 1401.85 649.618 1424.85 653 1450C653.143 1450.95 653.143 1450.95 653.29 1451.92C654.237 1458.96 654.151 1466.04 654.13 1473.13C654.125 1475.33 654.13 1477.52 654.137 1479.71C654.136 1481.12 654.135 1482.52 654.133 1483.93C654.132 1485.19 654.13 1486.45 654.129 1487.75C654 1491 654 1491 653 1495C581.06 1495.33 509.12 1495.66 435 1496C444.116 1523.35 455.207 1538.03 480.168 1550.73C504.559 1562.58 535.568 1562.05 560.969 1553.75C573.677 1549.05 590.253 1541.62 598 1530C598.99 1530 599.98 1530 601 1530C602.867 1532.27 602.867 1532.27 604.875 1535.25C607.594 1539.28 610.183 1542.02 614 1545C615.42 1546.63 616.793 1548.3 618.125 1550C620.657 1553.18 623.198 1556.26 625.992 1559.21C626.492 1559.74 626.992 1560.27 627.507 1560.81C628.482 1561.83 629.466 1562.85 630.457 1563.85C632.424 1565.92 633.937 1567.87 635.184 1570.44C634.882 1574.64 631.968 1576.87 629.062 1579.62C628.429 1580.24 627.796 1580.85 627.144 1581.48C602.475 1604.7 566.832 1617.01 533.172 1617.2C532.349 1617.21 531.526 1617.22 530.678 1617.22C528.036 1617.24 525.393 1617.25 522.75 1617.25C521.849 1617.25 520.948 1617.25 520.019 1617.25C507.122 1617.24 494.61 1616.96 482 1614C481.21 1613.82 480.42 1613.65 479.605 1613.46C468.66 1610.97 458.235 1607.65 448 1603C447.344 1602.7 446.688 1602.4 446.012 1602.1C431.149 1595.24 418.763 1586.35 407 1575C406.208 1574.27 405.417 1573.54 404.601 1572.79C386.607 1555.78 376.238 1532.83 371 1509C370.737 1507.93 370.737 1507.93 370.47 1506.85C365.192 1485.4 365.714 1458.38 371 1437C371.22 1436.08 371.441 1435.16 371.668 1434.2C380.2 1399.47 400.198 1372.53 430 1353C430.857 1352.4 431.714 1351.79 432.598 1351.17C481.19 1317.9 561.73 1322.41 605.496 1362.14ZM454.754 1407.02C444.176 1418.11 434 1434.29 434 1450C485.48 1450 536.96 1450 590 1450C587.501 1430.01 577.453 1413.77 562 1401C553.79 1394.63 544.929 1390.13 535 1387C534.269 1386.77 533.538 1386.53 532.785 1386.29C505.534 1379.02 474.672 1387.28 454.754 1407.02Z" fill="#040404"/>
<path d="M1785 1334C1808.1 1334 1831.2 1334 1855 1334C1862.69 1352.37 1862.69 1352.37 1865.08 1358.11C1868.13 1365.39 1871.19 1372.59 1874.82 1379.6C1877.14 1384.31 1879.08 1389.2 1881.08 1394.06C1886.14 1406.35 1891.41 1418.54 1896.81 1430.69C1903 1444.62 1908.99 1458.6 1914.17 1472.95C1916.43 1479.06 1918.85 1484.94 1921.69 1490.8C1926.12 1500.09 1930.08 1509.55 1934 1519.06C1934.69 1520.72 1935.37 1522.38 1936.06 1524.03C1937.71 1528.02 1939.36 1532.01 1941 1536C1946.17 1526.33 1950.25 1516.16 1954.5 1506.06C1955.99 1502.53 1957.48 1499 1958.97 1495.47C1959.32 1494.63 1959.68 1493.79 1960.05 1492.92C1961.91 1488.51 1963.83 1484.13 1965.84 1479.78C1967.85 1475.43 1969.49 1471.02 1971.06 1466.5C1974.14 1457.93 1977.73 1449.66 1981.47 1441.36C1987.28 1428.46 1992.88 1415.48 1998.5 1402.5C2004.64 1388.32 2010.78 1374.15 2017.12 1360.06C2020.51 1352.54 2023.65 1345.04 2026.23 1337.21C2027 1335 2027 1335 2028 1334C2030.02 1333.91 2032.05 1333.88 2034.08 1333.89C2036.03 1333.89 2036.03 1333.89 2038.02 1333.89C2039.45 1333.89 2040.89 1333.9 2042.32 1333.9C2043.77 1333.9 2045.23 1333.91 2046.68 1333.91C2050.52 1333.91 2054.36 1333.92 2058.2 1333.93C2062.11 1333.94 2066.03 1333.95 2069.94 1333.95C2077.63 1333.96 2085.31 1333.98 2093 1334C2092.53 1335.42 2092.07 1336.85 2091.6 1338.27C2091.34 1339.06 2091.08 1339.86 2090.81 1340.67C2089.66 1343.97 2088.25 1347.13 2086.81 1350.31C2084.16 1356.26 2081.69 1362.25 2079.31 1368.31C2075.64 1377.63 2071.6 1386.77 2067.5 1395.91C2064.33 1403 2061.22 1410.1 2058.19 1417.25C2055.8 1422.86 2053.37 1428.43 2050.75 1433.94C2046.83 1442.2 2043.25 1450.61 2039.64 1459.01C2036.07 1467.29 2032.46 1475.52 2028.46 1483.6C2027.23 1486.47 2026.26 1489.24 2025.32 1492.22C2022.45 1501.02 2018.61 1509.41 2014.88 1517.87C2014.1 1519.64 2013.33 1521.41 2012.55 1523.17C2008.39 1532.66 2004.16 1542.13 1999.82 1551.54C1994.96 1562.16 1990.39 1572.91 1985.79 1583.65C1982.72 1590.81 1979.6 1597.94 1976.26 1604.98C1973.57 1610.67 1971.2 1616.4 1969.06 1622.31C1956.15 1656.81 1937.67 1693.63 1902.74 1710.08C1897.77 1712.23 1892.71 1713.5 1887.44 1714.69C1886.54 1714.9 1885.65 1715.11 1884.73 1715.33C1865.02 1719.9 1843.67 1719.67 1824 1715C1822.66 1714.73 1821.32 1714.46 1819.98 1714.19C1805.76 1711.2 1793.56 1704.71 1782 1696C1781.01 1695.34 1780.02 1694.68 1779 1694C1779.6 1690.19 1780.72 1687.24 1782.51 1683.83C1783.02 1682.86 1783.53 1681.88 1784.06 1680.87C1784.6 1679.86 1785.13 1678.85 1785.69 1677.81C1786.21 1676.82 1786.72 1675.83 1787.26 1674.81C1790.23 1669.17 1793.36 1663.67 1796.67 1658.23C1798.39 1655.34 1799.9 1652.4 1801.38 1649.37C1801.88 1648.35 1802.38 1647.33 1802.9 1646.27C1803.26 1645.52 1803.63 1644.77 1804 1644C1808.51 1644 1809.03 1644.47 1812.31 1647.25C1818.63 1652.56 1824.75 1655.52 1832.62 1657.69C1833.73 1658.01 1833.73 1658.01 1834.86 1658.33C1849.46 1662.48 1865.47 1662.83 1879.14 1655.27C1886.71 1650.11 1891.52 1642.9 1895.89 1634.97C1896.68 1633.57 1897.5 1632.19 1898.34 1630.83C1904.1 1621.9 1904.1 1621.9 1905.82 1611.73C1904.68 1607.28 1902.62 1603.41 1900.35 1599.45C1894.38 1588.59 1889.74 1576.93 1884.83 1565.57C1879.65 1553.58 1874.43 1541.61 1868.94 1529.75C1865.71 1522.77 1862.55 1515.77 1859.56 1508.69C1859.26 1507.96 1858.95 1507.24 1858.63 1506.5C1857 1502.57 1855.5 1498.62 1854.07 1494.61C1852.1 1489.12 1849.74 1483.89 1847.25 1478.62C1842.3 1468 1837.63 1457.27 1833 1446.5C1828.55 1436.14 1824.06 1425.8 1819.31 1415.56C1810.97 1397.56 1803 1379.36 1795.76 1360.89C1793.19 1354.35 1790.36 1347.94 1787.44 1341.56C1785 1336.2 1785 1336.2 1785 1334Z" fill="#050505"/>
<path d="M3018 1354C3017.54 1359.91 3015.77 1363.77 3012.75 1368.81C3007.5 1377.85 3002.89 1387.15 2998.38 1396.58C2997.85 1397.66 2997.33 1398.74 2996.79 1399.85C2996.32 1400.82 2995.85 1401.79 2995.38 1402.79C2994 1405 2994 1405 2991 1406C2988.52 1404.89 2986.19 1403.73 2983.81 1402.44C2970.03 1395.3 2956.25 1390.83 2941 1388C2939.83 1387.77 2938.65 1387.55 2937.44 1387.31C2913.98 1383.48 2886.4 1383.32 2866 1397C2860.15 1401.66 2856.84 1407.53 2856 1415C2856.3 1418.46 2857.04 1421.67 2858 1425C2858.11 1425.71 2858.22 1426.43 2858.33 1427.16C2858.84 1429.16 2858.84 1429.16 2860.79 1430.07C2861.88 1430.53 2861.88 1430.53 2863 1431C2864.46 1431.93 2865.92 1432.87 2867.38 1433.81C2884.58 1444.04 2905.66 1446.12 2925.12 1449C2953.08 1453.16 2984.22 1458.48 3006 1478C3006.9 1478.79 3007.81 1479.58 3008.74 1480.39C3021.01 1491.76 3026.76 1505.97 3027.43 1522.65C3027.46 1524.89 3027.46 1527.13 3027.44 1529.37C3027.43 1530.56 3027.42 1531.74 3027.41 1532.95C3027.05 1551.75 3020.64 1567.97 3008 1582C3007.47 1582.61 3006.94 1583.22 3006.39 1583.85C2985.66 1606.28 2949.06 1615.8 2919.62 1617.11C2917.22 1617.16 2914.82 1617.19 2912.43 1617.2C2911.55 1617.21 2910.67 1617.22 2909.76 1617.22C2906.95 1617.24 2904.13 1617.25 2901.31 1617.25C2900.35 1617.25 2899.39 1617.25 2898.39 1617.25C2884.06 1617.24 2870.1 1616.8 2856 1614C2855.12 1613.83 2854.24 1613.67 2853.33 1613.5C2838.46 1610.64 2824.25 1606.07 2810 1601C2808.96 1600.64 2808.96 1600.64 2807.89 1600.27C2798.4 1596.94 2789.38 1592.59 2781 1587C2781.61 1583.13 2782.78 1580.06 2784.52 1576.56C2785.3 1574.99 2785.3 1574.99 2786.1 1573.38C2786.67 1572.26 2787.23 1571.15 2787.81 1570C2788.68 1568.28 2788.68 1568.28 2789.56 1566.53C2795 1555.81 2800.88 1545.35 2807 1535C2811.7 1536.42 2815.92 1538.42 2820.25 1540.69C2836.19 1548.79 2852.58 1554.05 2870 1558C2871.17 1558.27 2871.17 1558.27 2872.36 1558.55C2894.81 1563.55 2927.66 1565.52 2947.77 1552.89C2949.19 1551.94 2950.59 1550.97 2952 1550C2952.99 1549.67 2953.98 1549.34 2955 1549C2955 1548.34 2955 1547.68 2955 1547C2955.66 1547 2956.32 1547 2957 1547C2960.05 1539.81 2961.94 1533.71 2960 1526C2954.9 1516.35 2944.94 1512.23 2935 1509C2923.59 1506.02 2911.83 1504.46 2900.2 1502.57C2835.2 1492.02 2835.2 1492.02 2815 1476C2814.21 1475.4 2813.41 1474.8 2812.6 1474.18C2799.25 1463.29 2792.28 1447.82 2790 1431C2788.39 1410.2 2790.87 1391.21 2802.59 1373.61C2803.06 1373.08 2803.52 1372.55 2804 1372C2804.66 1372 2805.32 1372 2806 1372C2806.24 1371.44 2806.47 1370.88 2806.71 1370.3C2816.68 1352.46 2840.86 1341.94 2859.59 1336.63C2908.26 1323.92 2974.59 1326.03 3018 1354Z" fill="#050505"/>
<path d="M2734.14 1362.32C2735.09 1363.21 2736.03 1364.09 2737 1365C2738.34 1366.22 2738.34 1366.22 2739.7 1367.46C2746.23 1373.65 2751.16 1380.45 2756 1388C2756.87 1389.27 2756.87 1389.27 2757.75 1390.57C2759.16 1393.31 2759.1 1394.97 2759 1398C2758.34 1398.38 2757.68 1398.76 2756.99 1399.16C2754.41 1400.64 2751.83 1402.13 2749.26 1403.61C2748.09 1404.29 2746.92 1404.96 2745.75 1405.63C2739.15 1409.43 2732.56 1413.25 2726 1417.11C2724.91 1417.76 2723.81 1418.4 2722.69 1419.06C2720.59 1420.3 2718.49 1421.54 2716.39 1422.78C2715.45 1423.34 2714.5 1423.89 2713.53 1424.47C2712.7 1424.96 2711.87 1425.45 2711.02 1425.95C2709 1427 2709 1427 2707 1427C2705.68 1425.36 2704.45 1423.66 2703.25 1421.94C2691.14 1405.01 2674.23 1392.96 2653.34 1389.3C2638.37 1387.4 2623.34 1388.34 2609 1393C2607.92 1393.35 2606.83 1393.7 2605.72 1394.06C2597.78 1397.01 2591.51 1401.66 2585 1407C2584.21 1407.62 2583.41 1408.23 2582.6 1408.87C2566.64 1421.93 2559 1441.5 2556.25 1461.5C2556.14 1463 2556.06 1464.5 2556 1466C2555.92 1467.72 2555.92 1467.72 2555.84 1469.47C2555.25 1494.78 2562.28 1518.49 2580.02 1537.12C2596.98 1553.27 2620.15 1559.07 2643 1559C2663.37 1557.85 2684.27 1548.73 2698.19 1533.63C2701.61 1529.65 2704.36 1525.53 2707 1521C2710.76 1522.4 2714.12 1524.13 2717.58 1526.16C2718.65 1526.79 2719.72 1527.41 2720.82 1528.05C2722.52 1529.05 2722.52 1529.05 2724.25 1530.06C2732.71 1535 2741.2 1539.84 2749.92 1544.3C2753.17 1545.97 2756.16 1547.69 2759 1550C2757.54 1563.71 2743.13 1578.21 2733 1587C2698.64 1614.1 2656.58 1620.47 2613.83 1616.54C2596.36 1614.43 2579.77 1608.48 2563.97 1600.94C2562.18 1600.08 2560.37 1599.26 2558.56 1598.44C2551.54 1595.14 2545.82 1591.1 2540 1586C2539.19 1585.3 2538.38 1584.6 2537.54 1583.88C2534.99 1581.62 2532.49 1579.32 2530 1577C2529.12 1576.2 2528.25 1575.4 2527.35 1574.58C2501.23 1549.81 2488.46 1515.47 2487 1480C2486.96 1479.03 2486.92 1478.05 2486.87 1477.05C2486.52 1459.91 2488.82 1443.32 2494 1427C2494.22 1426.3 2494.44 1425.6 2494.67 1424.88C2499.73 1409.39 2507.69 1395.6 2518 1383C2518.68 1382.16 2519.37 1381.32 2520.07 1380.46C2526.34 1373.17 2533.55 1367.03 2541 1361C2541.91 1360.27 2542.81 1359.53 2543.75 1358.78C2595.43 1319.21 2685.05 1317.64 2734.14 1362.32Z" fill="#050505"/>
<path d="M723 1272C745.11 1272 767.22 1272 790 1272C790 1293.12 790 1314.24 790 1336C814.75 1336 839.5 1336 865 1336C865 1353.82 865 1371.64 865 1390C840.25 1390 815.5 1390 790 1390C790.091 1414.41 790.091 1414.41 790.209 1438.82C790.263 1448.79 790.315 1458.75 790.346 1468.71C790.369 1475.96 790.403 1483.22 790.449 1490.48C790.473 1494.31 790.491 1498.15 790.498 1501.99C790.504 1505.61 790.524 1509.23 790.554 1512.85C790.567 1514.8 790.565 1516.74 790.563 1518.69C790.694 1531.07 792.605 1541.56 801 1551C808.956 1558.66 819.36 1561.39 830.258 1561.21C840.096 1560.45 848.771 1558.16 857.414 1553.4C859.893 1552.06 862.365 1550.99 865 1550C867.867 1555.57 870.378 1561.16 872.672 1566.99C872.999 1567.81 873.326 1568.64 873.664 1569.49C874.348 1571.22 875.03 1572.94 875.71 1574.67C876.755 1577.33 877.809 1579.97 878.863 1582.62C879.529 1584.3 880.195 1585.99 880.859 1587.68C881.175 1588.47 881.49 1589.26 881.816 1590.07C884 1595.66 884 1595.66 884 1599C860.388 1617.67 827.583 1619.62 798.776 1616.67C778.017 1613.78 755.299 1604.63 741.688 1588.12C729.611 1571.93 722.863 1552.84 722.88 1532.5C722.878 1531.24 722.877 1529.97 722.876 1528.67C722.879 1527.29 722.883 1525.91 722.886 1524.53C722.887 1523.06 722.887 1521.59 722.886 1520.12C722.886 1516.15 722.892 1512.18 722.899 1508.2C722.905 1504.05 722.905 1499.89 722.907 1495.73C722.91 1487.87 722.918 1480 722.928 1472.13C722.939 1463.18 722.945 1454.22 722.95 1445.26C722.96 1426.84 722.978 1408.42 723 1390C707.82 1390 692.64 1390 677 1390C677 1372.18 677 1354.36 677 1336C692.18 1336 707.36 1336 723 1336C723 1314.88 723 1293.76 723 1272Z" fill="#050505"/>
<path d="M2148 1272C2170.11 1272 2192.22 1272 2215 1272C2215 1293.12 2215 1314.24 2215 1336C2239.75 1336 2264.5 1336 2290 1336C2290 1353.82 2290 1371.64 2290 1390C2265.25 1390 2240.5 1390 2215 1390C2215.09 1414.21 2215.09 1414.21 2215.21 1438.42C2215.26 1448.3 2215.31 1458.18 2215.35 1468.06C2215.37 1475.26 2215.4 1482.45 2215.45 1489.65C2215.47 1493.46 2215.49 1497.26 2215.5 1501.07C2215.5 1504.66 2215.52 1508.25 2215.55 1511.85C2215.57 1513.77 2215.57 1515.7 2215.56 1517.62C2215.7 1530.83 2217.6 1542.24 2227 1552C2234.82 1558.42 2245.35 1561.73 2255.48 1561.28C2266.21 1560.1 2274.69 1557.66 2284.07 1552.52C2286.51 1551.26 2288.37 1550.59 2291 1550C2291.71 1551.82 2291.71 1551.82 2292.44 1553.68C2294.2 1558.2 2295.96 1562.72 2297.73 1567.24C2298.49 1569.2 2299.25 1571.15 2300.01 1573.11C2301.11 1575.92 2302.21 1578.73 2303.3 1581.54C2303.64 1582.41 2303.98 1583.28 2304.33 1584.18C2304.65 1585 2304.97 1585.82 2305.3 1586.67C2305.6 1587.43 2305.9 1588.19 2306.2 1588.97C2306.85 1590.63 2307.54 1592.27 2308.23 1593.9C2309 1596 2309 1596 2309 1599C2290.97 1613.71 2266.81 1617.43 2244.31 1617.31C2243.26 1617.31 2243.26 1617.31 2242.19 1617.31C2231.22 1617.27 2220.68 1616.65 2210 1614C2208.43 1613.62 2208.43 1613.62 2206.82 1613.23C2195.19 1609.86 2183.11 1602.98 2174 1595C2173.28 1594.38 2172.55 1593.76 2171.81 1593.12C2156.94 1579.44 2149.62 1557.73 2148 1538C2147.86 1533.17 2147.87 1528.34 2147.89 1523.51C2147.89 1522.05 2147.89 1520.59 2147.89 1519.13C2147.89 1515.19 2147.89 1511.24 2147.9 1507.3C2147.9 1503.18 2147.91 1499.05 2147.91 1494.92C2147.91 1487.12 2147.92 1479.31 2147.93 1471.51C2147.94 1462.62 2147.94 1453.73 2147.95 1444.84C2147.96 1426.56 2147.98 1408.28 2148 1390C2132.82 1390 2117.64 1390 2102 1390C2102 1372.18 2102 1354.36 2102 1336C2117.18 1336 2132.36 1336 2148 1336C2148 1314.88 2148 1293.76 2148 1272Z" fill="#050505"/>
<path d="M938 1272C959.78 1272 981.56 1272 1004 1272C1004 1293.12 1004 1314.24 1004 1336C1028.75 1336 1053.5 1336 1079 1336C1079 1353.82 1079 1371.64 1079 1390C1054.25 1390 1029.5 1390 1004 1390C1004.09 1414.61 1004.09 1414.61 1004.21 1439.23C1004.26 1449.27 1004.31 1459.31 1004.35 1469.36C1004.37 1476.67 1004.4 1483.99 1004.45 1491.3C1004.47 1495.17 1004.49 1499.04 1004.5 1502.91C1004.5 1506.56 1004.52 1510.21 1004.55 1513.86C1004.57 1515.82 1004.57 1517.78 1004.56 1519.75C1004.69 1531.93 1006.84 1541.7 1015 1551C1023.51 1559.07 1033.61 1561.39 1045.14 1561.21C1054.69 1560.51 1062.99 1557.97 1071.38 1553.4C1073.87 1552.07 1076.37 1551.03 1079 1550C1083.63 1559.69 1087.46 1569.67 1091.31 1579.69C1091.96 1581.37 1092.62 1583.06 1093.27 1584.74C1094.85 1588.83 1096.43 1592.91 1098 1597C1083.31 1611.9 1060.68 1617.06 1040.3 1617.22C1038.81 1617.23 1037.32 1617.24 1035.82 1617.24C1033.6 1617.25 1031.38 1617.28 1029.15 1617.31C1003.82 1617.5 979.34 1609.81 960 1593C960 1592.34 960 1591.68 960 1591C959.01 1590.67 958.02 1590.34 957 1590C941.958 1572.1 937.474 1548.08 937.659 1525.32C937.66 1523.83 937.66 1522.34 937.658 1520.85C937.657 1516.86 937.675 1512.88 937.696 1508.89C937.715 1504.7 937.716 1500.51 937.72 1496.32C937.729 1488.41 937.754 1480.5 937.784 1472.59C937.818 1463.58 937.834 1454.57 937.849 1445.55C937.88 1427.04 937.935 1408.52 938 1390C922.49 1390 906.98 1390 891 1390C891 1372.18 891 1354.36 891 1336C906.51 1336 922.02 1336 938 1336C938 1314.88 938 1293.76 938 1272Z" fill="#030303"/>
<path d="M1680 1225C1702.11 1225 1724.22 1225 1747 1225C1747 1353.37 1747 1481.74 1747 1614C1724.89 1614 1702.78 1614 1680 1614C1680 1485.63 1680 1357.26 1680 1225Z" fill="#010101"/>
<path d="M1626 1330C1627 1331 1627 1331 1627.12 1333.51C1627.12 1334.63 1627.12 1335.75 1627.11 1336.9C1627.11 1338.16 1627.11 1339.42 1627.11 1340.72C1627.11 1342.11 1627.1 1343.49 1627.1 1344.88C1627.1 1346.29 1627.09 1347.7 1627.09 1349.11C1627.09 1352.83 1627.08 1356.55 1627.07 1360.27C1627.06 1364.07 1627.05 1367.86 1627.05 1371.65C1627.04 1379.1 1627.02 1386.55 1627 1394C1625 1395 1625 1395 1622.96 1394.58C1603.59 1390.79 1581.08 1395.27 1564.69 1405.88C1562.77 1407.23 1560.88 1408.6 1559 1410C1558.27 1410.54 1557.54 1411.09 1556.79 1411.65C1540.97 1424.46 1534.23 1443.39 1532 1463C1531.31 1473.82 1531.39 1484.68 1531.39 1495.52C1531.39 1499.7 1531.36 1503.88 1531.34 1508.06C1531.3 1515.93 1531.28 1523.81 1531.27 1531.69C1531.25 1542.36 1531.2 1553.04 1531.15 1563.71C1531.07 1580.47 1531.04 1597.24 1531 1614C1508.56 1614 1486.12 1614 1463 1614C1463 1521.6 1463 1429.2 1463 1334C1484.12 1334 1505.24 1334 1527 1334C1527.33 1346.21 1527.66 1358.42 1528 1371C1530.97 1367.37 1533.94 1363.74 1537 1360C1561.66 1337.99 1593.23 1329.02 1626 1330Z" fill="#050505"/>
<path d="M2361 1334C2382.78 1334 2404.56 1334 2427 1334C2427 1426.4 2427 1518.8 2427 1614C2405.22 1614 2383.44 1614 2361 1614C2361 1521.6 2361 1429.2 2361 1334Z" fill="#010101"/>
<path d="M1543.35 760.75C1552.08 767.986 1557.81 777.832 1560 789C1561.02 804.784 1558.38 816.549 1548.33 829.086C1540.34 837.992 1528.48 843.135 1516.69 844.211C1503.03 844.78 1490.29 840.014 1480.19 830.812C1471.08 820.82 1466.19 808.064 1466.72 794.523C1468.34 779.986 1474.54 768.186 1486 759C1504.36 747.572 1525.88 747.747 1543.35 760.75Z" fill="#2580CD"/>
<path d="M1165.89 471.473C1168.61 473.444 1170.8 475.448 1173 478C1173.83 478.919 1173.83 478.919 1174.68 479.856C1183.02 489.668 1186.48 501.192 1186 514C1184.97 522.515 1182.94 529.956 1178 537C1177.38 537.906 1176.77 538.813 1176.13 539.746C1169.61 548.555 1160.51 554.989 1149.49 556.785C1134.62 558.067 1122.39 556.58 1110.43 547.121C1101.96 539.736 1094.83 529.53 1093.82 517.976C1093.43 504.144 1094.67 493.495 1103 482C1103.42 481.406 1103.83 480.812 1104.26 480.199C1118.75 461.421 1146.74 458.999 1165.89 471.473Z" fill="#2073BC"/>
<path d="M2026.89 162.918C2038.11 171.565 2046.07 181.751 2048 196C2048.94 209.962 2046.44 221.995 2037.41 232.93C2029 241.854 2019.28 247.723 2006.89 248.469C2005.15 248.503 2003.42 248.513 2001.69 248.5C2000.32 248.493 2000.32 248.493 1998.92 248.485C1986.59 248.169 1976.47 243.773 1967.91 234.816C1958.31 223.659 1955.12 211.482 1955.81 196.981C1956.54 189.367 1959.26 181.991 1964 176C1964.41 175.379 1964.82 174.757 1965.23 174.117C1970.84 165.84 1978.85 160.509 1988.4 157.66C2001.36 155.284 2015.65 155.454 2026.89 162.918Z" fill="#1E72BC"/>
<path d="M2423.16 1218.25C2431.45 1226.14 2436.04 1234.46 2436.47 1245.92C2436.62 1258.42 2434.08 1267.33 2426 1277C2425.4 1277.89 2424.8 1278.77 2424.19 1279.69C2417.01 1287.28 2406.22 1290.02 2396.08 1290.35C2382.38 1290.5 2372.32 1287.16 2362.31 1277.81C2352.77 1267.95 2351.52 1257.8 2351.72 1244.72C2352.12 1234.67 2356.96 1227.12 2363.88 1220.09C2379.55 1205.62 2406.43 1204.57 2423.16 1218.25Z" fill="#060606"/>
<path d="M2535 1366C2535.66 1366.33 2536.32 1366.66 2537 1367C2534.55 1369.51 2532.09 1372.01 2529.62 1374.5C2528.58 1375.57 2528.58 1375.57 2527.51 1376.67C2526.84 1377.34 2526.17 1378.02 2525.48 1378.72C2524.86 1379.35 2524.24 1379.98 2523.6 1380.62C2522 1382 2522 1382 2520 1382C2523.03 1375.21 2529.32 1370.57 2535 1366Z" fill="#4A4A4A"/>
<path d="M1162 1366C1162.66 1366.33 1163.32 1366.66 1164 1367C1160.7 1370.3 1157.4 1373.6 1154 1377C1153.67 1376.01 1153.34 1375.02 1153 1374C1155.97 1371.36 1158.94 1368.72 1162 1366Z" fill="#3B3B3B"/>
<path d="M1961 294C1962.32 294.33 1963.64 294.66 1965 295C1962.36 296.98 1959.72 298.96 1957 301C1958.27 295.921 1958.27 295.921 1961 294Z" fill="#7BABD5"/>
<path d="M1109 475C1109.66 475 1110.32 475 1111 475C1109.71 477.884 1108.34 479.872 1106 482C1105.34 481.67 1104.68 481.34 1104 481C1105.62 478.959 1107.29 476.959 1109 475Z" fill="#639AD2"/>
<path d="M1671 647C1671.66 647 1672.32 647 1673 647C1671.71 649.884 1670.34 651.872 1668 654C1667.34 653.67 1666.68 653.34 1666 653C1667.62 650.959 1669.29 648.959 1671 647Z" fill="#6BA3DB"/>
</svg>
