<svg width="1071" height="1069" viewBox="0 0 1071 1069" fill="none" xmlns="http://www.w3.org/2000/svg">
<path d="M375.58 0C481.51 0 587.44 0 696.58 0C696.903 140.545 696.903 140.545 696.966 194.36C696.982 208.432 696.999 222.505 697.017 236.577C697.019 238.279 697.021 239.981 697.023 241.683C697.057 268.82 697.117 295.956 697.191 323.092C697.266 350.981 697.315 378.87 697.332 406.76C697.334 410.699 697.337 414.638 697.339 418.577C697.34 419.74 697.34 419.74 697.341 420.926C697.35 433.407 697.388 445.887 697.435 458.367C697.482 470.913 697.5 483.46 697.488 496.006C697.483 502.805 697.491 509.602 697.534 516.4C697.573 522.624 697.575 528.846 697.548 535.069C697.544 537.321 697.554 539.573 697.579 541.825C697.778 560.751 697.778 560.751 692.688 567.217C691.36 568.521 689.995 569.79 688.58 571C687.671 571.998 686.773 573.007 685.893 574.031C684.748 575.253 684.748 575.253 683.58 576.5C679.837 580.572 676.316 584.734 672.901 589.082C669.889 592.87 666.794 596.587 663.705 600.312C658.643 606.428 653.724 612.622 648.959 618.973C646.54 622.051 643.998 624.976 641.407 627.909C638.431 631.315 635.571 634.814 632.705 638.312C632.092 639.059 631.479 639.805 630.848 640.574C626.888 645.398 622.936 650.229 618.987 655.062C615.859 658.881 612.719 662.69 609.58 666.5C601.519 676.285 593.484 686.086 585.58 696C584.081 697.875 582.581 699.75 581.08 701.625C580.41 702.463 579.74 703.301 579.049 704.164C578.564 704.77 578.08 705.376 577.58 706C573.621 705.459 570.004 704.54 566.229 703.235C541.776 694.851 516.446 697.276 493.194 708.191C489.19 710.151 485.354 712.34 481.596 714.738C479.639 715.963 477.65 716.982 475.58 718C474.92 717.482 474.92 717.482 474.245 716.953C460.269 706.003 446.202 695.156 431.768 684.812C426.892 681.294 422.222 677.544 417.544 673.771C410.001 667.7 402.288 661.857 394.58 656C391.433 653.606 388.287 651.21 385.143 648.812C384.051 647.983 384.051 647.983 382.936 647.137C381.927 646.367 381.927 646.367 380.897 645.582C380.303 645.131 379.71 644.679 379.098 644.214C375.638 641.446 375.638 641.446 375.331 639.064C375.331 638.265 375.332 637.465 375.332 636.641C375.327 635.718 375.323 634.795 375.318 633.844C375.324 632.82 375.329 631.797 375.334 630.743C375.332 629.659 375.33 628.574 375.327 627.457C375.322 623.779 375.331 620.102 375.34 616.425C375.339 613.779 375.337 611.133 375.335 608.487C375.331 602.713 375.334 596.938 375.342 591.164C375.354 582.577 375.355 573.991 375.353 565.404C375.35 550.962 375.357 536.52 375.369 522.078C375.381 507.772 375.388 493.467 375.391 479.162C375.391 478.273 375.391 477.385 375.391 476.469C375.392 471.957 375.392 467.445 375.393 462.933C375.397 430.95 375.411 398.967 375.429 366.984C375.448 335.908 375.462 304.831 375.471 273.755C375.471 271.802 375.472 269.848 375.472 267.895C375.477 252.025 375.481 236.155 375.485 220.285C375.503 146.857 375.544 73.4285 375.58 0Z" fill="white"/>
<path d="M1069.58 291C1070.95 323.211 1062.37 357.135 1049.96 386.68C1048.65 389.841 1047.49 393.027 1046.33 396.25C1038.87 415.625 1027.28 433.771 1014.77 450.25C1014.25 450.929 1013.74 451.608 1013.21 452.307C1010.12 456.282 1006.83 459.89 1003.21 463.387C1001.51 465.067 999.949 466.819 998.393 468.625C993.273 474.554 987.936 480.284 982.581 486C981.62 487.027 981.62 487.027 980.64 488.074C968.687 500.43 953.781 510.579 939.268 519.688C932.361 524.034 925.964 528.922 919.581 534C920.452 534.617 921.324 535.235 922.222 535.871C929.057 540.727 935.821 545.658 942.511 550.715C945.873 553.217 949.284 555.643 952.706 558.062C958.505 562.173 964.074 566.504 969.581 571C971.268 572.334 972.955 573.667 974.643 575C982.365 581.214 989.106 587.371 995.276 595.164C997.545 597.956 999.93 600.567 1002.39 603.188C1008.68 610.041 1014.15 617.461 1019.58 625C1020.06 625.657 1020.53 626.313 1021.02 626.99C1034.04 645.052 1044.78 664.699 1051.85 685.85C1052.69 688.331 1053.58 690.797 1054.46 693.266C1064.05 720.555 1069.77 749.05 1070.58 778C1070.6 778.716 1070.62 779.432 1070.65 780.17C1071.99 831.132 1059.33 883.885 1033.58 928C1033.08 928.866 1032.57 929.733 1032.05 930.625C1021.31 948.779 1008.51 965.277 993.475 980.074C991.613 981.968 989.873 983.922 988.143 985.938C981.02 994.17 973.195 1001.36 964.581 1008C963.897 1008.53 963.213 1009.06 962.509 1009.6C951.636 1017.93 940.574 1025.39 928.581 1032C927.871 1032.4 927.161 1032.8 926.43 1033.22C896.791 1049.94 864.16 1060.8 830.581 1066C828.996 1066.26 828.996 1066.26 827.379 1066.53C812.728 1068.62 797.971 1068.23 783.209 1068.14C779.521 1068.12 775.833 1068.11 772.145 1068.1C764.957 1068.08 757.769 1068.04 750.581 1068C750.41 1021.34 750.251 974.69 750.158 928.034C750.156 927.344 750.155 926.653 750.153 925.942C750.123 910.931 750.096 895.921 750.07 880.91C750.058 873.549 750.045 866.188 750.032 858.826C750.03 858.094 750.029 857.361 750.028 856.607C749.985 832.869 749.91 809.132 749.818 785.394C749.724 760.998 749.662 736.602 749.642 712.206C749.639 708.759 749.636 705.312 749.632 701.865C749.632 701.187 749.631 700.508 749.63 699.809C749.618 688.895 749.572 677.981 749.513 667.067C749.454 656.091 749.432 645.115 749.446 634.139C749.452 628.193 749.442 622.248 749.389 616.303C749.34 610.857 749.338 605.413 749.372 599.967C749.376 597.999 749.364 596.031 749.332 594.064C749.088 577.837 749.088 577.837 754.108 571.898C756.15 569.795 758.353 567.902 760.581 566C762.371 563.809 763.872 561.541 765.456 559.188C769.332 553.571 773.543 548.395 778.038 543.266C781.643 539.141 785.05 534.901 788.393 530.562C791.607 526.403 794.898 522.568 798.714 518.953C802.403 515.094 805.556 510.769 808.819 506.551C811.206 503.466 813.657 500.443 816.143 497.438C819.336 493.564 822.419 489.621 825.456 485.625C832.011 477.027 838.995 468.811 846.268 460.812C849.869 456.848 853.246 452.756 856.561 448.551C858.641 445.924 860.762 443.335 862.893 440.75C866.297 436.6 869.643 432.41 872.956 428.188C873.416 427.601 873.877 427.014 874.351 426.41C876.703 423.409 879.045 420.401 881.374 417.383C886.363 410.939 891.508 404.81 897.058 398.832C900.33 395.159 903.322 391.303 906.328 387.411C909.689 383.082 913.181 378.893 916.768 374.75C921.512 369.271 926.098 363.695 930.581 358C937.184 349.666 943.944 341.464 950.712 333.264C955.492 327.472 960.265 321.675 965.037 315.876C966.009 314.695 966.981 313.515 967.953 312.335C972.928 306.297 977.816 300.205 982.581 294C987.204 294.43 991.287 295.497 995.706 296.938C1025.42 306.245 1042.64 291 1069.58 291Z" fill="white"/>
<path d="M1.58008 0C107.18 0 212.78 0 321.58 0C321.58 197.67 321.58 395.34 321.58 599C318.441 597.431 316.215 596.07 313.518 593.938C312.724 593.312 311.929 592.687 311.111 592.043C309.431 590.687 307.764 589.315 306.111 587.926C300.924 583.575 295.627 579.59 290.018 575.812C281.627 570.158 273.685 563.987 265.752 557.713C262.044 554.789 258.311 551.895 254.58 549C255.341 542.98 256.666 537.202 258.119 531.316C263.664 508.434 260.134 481.086 248.149 460.548C245.341 456.309 242.226 452.373 238.899 448.53C237.808 447.265 236.771 445.954 235.748 444.633C224.519 430.476 205.803 419.837 188.58 415C187.537 414.704 186.494 414.407 185.42 414.102C159.31 407.798 133.941 413.051 110.838 425.965C86.6991 441.044 72.4515 463.131 65.3418 490.43C60.53 512.984 64.0676 536.422 75.0176 556.688C76.76 560.381 76.81 561.239 75.5801 565C73.9253 567.093 73.9253 567.093 71.791 569.145C70.6251 570.284 70.6251 570.284 69.4355 571.447C68.617 572.228 67.7984 573.008 66.9551 573.812C61.7787 578.817 56.7445 583.821 52.0591 589.292C50.3241 591.296 48.4866 593.159 46.5801 595C43.9803 597.56 41.5174 600.168 39.1426 602.938C36.6202 605.877 33.9799 608.61 31.2051 611.312C27.8406 614.62 24.8366 618.064 21.8926 621.75C19.5642 624.659 17.3864 627.378 14.4551 629.688C11.2163 632.293 8.7897 635.197 6.19336 638.426C4.58008 640 4.58008 640 1.58008 640C1.58008 428.8 1.58008 217.6 1.58008 0Z" fill="white"/>
<path d="M222.592 590.236C225.816 591.476 228.307 593.712 230.956 595.875C232.21 596.881 233.464 597.886 234.718 598.891C235.677 599.666 235.677 599.666 236.657 600.456C239.671 602.875 242.722 605.247 245.768 607.625C249.925 610.878 254.025 614.184 258.081 617.563C263.099 621.692 268.337 625.456 273.639 629.204C285.376 637.508 297.008 645.887 307.694 655.525C309.674 657.145 309.674 657.145 312.482 658.667C317.25 661.61 320.905 663.885 322.689 669.468C323.097 673.802 323.126 677.998 323.024 682.344C323.029 684.01 323.04 685.676 323.055 687.342C323.082 691.906 323.034 696.467 322.974 701.031C322.922 705.958 322.939 710.884 322.949 715.81C322.955 724.341 322.917 732.87 322.85 741.401C322.752 753.734 322.721 766.067 322.706 778.4C322.68 798.411 322.6 818.422 322.486 838.432C322.376 857.869 322.291 877.305 322.24 896.742C322.237 897.953 322.234 899.163 322.23 900.41C322.205 909.879 322.182 919.347 322.159 928.815C322.046 975.211 321.804 1021.6 321.581 1068C215.981 1068 110.381 1068 1.58091 1068C1.09693 980.903 1.09693 980.903 0.994971 944.528C0.971478 936.202 0.947232 927.876 0.921729 919.551C0.918564 918.507 0.915392 917.464 0.912131 916.389C0.859964 899.551 0.765386 882.714 0.655082 865.876C0.542794 848.592 0.476192 831.307 0.45185 814.022C0.435398 803.359 0.383471 792.698 0.285911 782.035C0.222392 774.72 0.203328 767.405 0.218894 760.089C0.226568 755.87 0.214957 751.654 0.150443 747.435C-0.256876 719.452 -0.256875 719.452 5.80431 712.643C8.2167 710.463 10.8309 708.725 13.5809 707C15.5168 705.052 15.5168 705.052 16.9559 703.188C24.9871 693.782 33.6178 684.88 42.4168 676.196C45.0096 673.566 47.4044 670.802 49.8036 667.997C52.5307 664.934 55.475 662.098 58.3934 659.219C60.3781 657.206 62.2419 655.146 64.0809 653C67.3314 649.208 70.8354 645.729 74.3895 642.223C77.0019 639.573 79.4139 636.789 81.8348 633.965C84.3069 631.183 86.9652 628.607 89.6161 625.997C91.5032 624.079 93.2678 622.105 95.0184 620.063C98.2826 616.263 101.793 612.77 105.358 609.254C108.593 605.974 111.603 602.514 114.581 599C120.398 599.862 125.747 602.257 131.192 604.385C152.188 612.362 177.512 611.584 198.104 602.684C208.199 598.137 208.199 598.137 217.444 592.122C220.581 590 220.581 590 222.592 590.236Z" fill="white"/>
<path d="M693.58 646C694.57 646 695.56 646 696.58 646C696.58 785.26 696.58 924.52 696.58 1068C590.65 1068 484.72 1068 375.58 1068C375.58 949.53 375.58 831.06 375.58 709C379.369 710.515 381.318 711.342 384.303 713.73C384.997 714.279 385.69 714.828 386.405 715.393C387.144 715.985 387.882 716.577 388.643 717.188C390.242 718.452 391.842 719.715 393.443 720.977C394.278 721.634 395.113 722.292 395.973 722.97C401.203 727.043 406.532 730.985 411.854 734.936C415.235 737.455 418.597 739.97 421.822 742.688C424.46 744.899 427.158 746.932 429.955 748.938C434.537 752.241 439.076 755.593 443.58 759C443.209 760.702 443.209 760.702 442.83 762.438C442.652 763.272 442.474 764.106 442.291 764.965C441.777 767.16 441.189 769.339 440.557 771.504C435.44 789.554 435.621 809.178 441.58 827C441.902 827.969 441.902 827.969 442.229 828.958C447.003 842.875 454.329 854.496 464.58 865C465.25 865.709 465.921 866.418 466.611 867.148C484.195 885.36 508.052 895.692 533.348 896.351C562.365 896.603 585.665 885.46 606.58 866C607.294 865.352 608.008 864.703 608.744 864.035C624.719 848.955 634.058 825.041 634.916 803.273C635.242 781.789 631.082 762.518 619.58 744C618.92 743.34 618.26 742.68 617.58 742C617.732 737.754 620.911 734.954 623.58 731.938C624.589 730.773 625.596 729.607 626.604 728.441C627.107 727.861 627.611 727.282 628.13 726.684C630.956 723.402 633.671 720.031 636.404 716.672C637.859 714.886 639.32 713.104 640.787 711.328C644.307 707.062 647.772 702.773 651.11 698.362C655.808 692.154 660.764 686.239 665.895 680.385C669.608 676.143 673.194 671.828 676.682 667.398C679.558 663.765 682.522 660.203 685.471 656.629C687.878 653.629 690.117 650.536 692.291 647.363C692.716 646.913 693.142 646.464 693.58 646Z" fill="white"/>
<path d="M750.58 0C818.786 0 883.726 3.38993 940.867 43.793C942.557 44.9837 944.261 46.1513 945.971 47.3125C956.866 54.7482 967.351 62.6742 977.58 71C978.167 71.4731 978.753 71.9462 979.357 72.4336C984.817 76.8933 989.461 81.9132 993.955 87.3125C997.685 91.7752 1001.47 96.1585 1005.44 100.414C1006.58 102 1006.58 102 1006.58 105C1005.12 105.35 1005.12 105.35 1003.63 105.707C985.311 110.426 968.07 118.569 954.58 132C953.767 132.799 952.953 133.598 952.115 134.422C936.439 150.822 926.597 174.255 925.58 197C925.529 197.764 925.477 198.529 925.424 199.316C924.731 218.223 929.749 238.753 940.26 254.52C941.778 257.372 942.102 258.82 941.58 262C940.217 264.184 940.217 264.184 938.268 266.438C935.299 269.956 932.399 273.496 929.59 277.142C924.943 283.166 920.07 288.859 914.896 294.445C912.083 297.548 909.492 300.783 906.904 304.074C903.864 307.901 900.754 311.668 897.643 315.438C896.423 316.917 895.202 318.396 893.982 319.875C893.108 320.935 893.108 320.935 892.216 322.016C887.402 327.854 882.604 333.703 877.893 339.625C872.409 346.501 866.787 353.263 861.19 360.046C859.147 362.526 857.112 365.012 855.08 367.5C850.651 372.92 846.2 378.322 841.748 383.722C838.366 387.825 834.998 391.938 831.643 396.062C829.116 399.16 826.546 402.199 823.893 405.188C821.157 408.28 818.679 411.49 816.232 414.812C812.826 419.322 809.176 423.641 805.58 428C804.079 429.833 802.579 431.666 801.08 433.5C798.82 436.263 796.559 439.025 794.295 441.785C789.976 447.052 785.7 452.347 781.502 457.711C779.58 460 779.58 460 777.166 462.387C774.349 465.233 771.894 468.271 769.455 471.438C768.754 472.336 768.754 472.336 768.039 473.252C765.508 476.499 762.996 479.761 760.49 483.027C759.992 483.672 759.494 484.317 758.981 484.981C758.018 486.227 757.061 487.477 756.109 488.732C754.979 490.192 753.785 491.602 752.58 493C751.92 493 751.26 493 750.58 493C750.58 330.31 750.58 167.62 750.58 0Z" fill="white"/>
<path d="M559.139 756.461C561.358 757.896 563.472 759.41 565.581 761C566.447 761.577 567.313 762.155 568.206 762.75C577.03 771.109 581.857 781.964 582.819 793.972C583.161 808.197 578.59 820.581 569.081 831.187C559.513 840.241 546.462 844.554 533.468 844.246C520.543 843.144 509.457 837.956 500.585 828.48C491.51 817.248 488.2 804.264 489.581 790C491.974 777.621 497.985 766.183 508.581 759C524.544 749.805 542.573 747.002 559.139 756.461Z" fill="white"/>
<path d="M189.581 472C195.788 476.957 200.008 482.96 203.581 490C203.996 490.797 204.411 491.594 204.839 492.414C209.373 502.657 209.195 515.839 206.081 526.5C203.613 532.734 199.853 537.879 195.581 543C195.024 543.682 194.467 544.364 193.893 545.067C186.948 552.797 176.332 556.571 166.139 557.219C151.205 557.581 139.987 553.998 128.831 543.813C119.24 533.438 115.083 520.959 115.581 506.938C117.076 492.753 123.548 481.61 134.417 472.567C150.923 460.619 172.587 461.142 189.581 472Z" fill="white"/>
<path d="M1052.33 165.687C1062.37 173.639 1067.73 182.062 1070.33 194.625C1071.34 208.22 1069.26 221.032 1060.58 232C1052.4 240.585 1042.21 247.925 1029.98 248.238C1014.1 248.561 1003.36 246.154 990.955 235.812C980.255 223.141 977.457 211.426 978.39 195.21C979.363 183.858 985.725 174.891 993.58 167C997.049 164.118 1000.52 161.942 1004.58 160C1005.31 159.644 1006.04 159.288 1006.79 158.922C1021.93 153.079 1039.71 156.269 1052.33 165.687Z" fill="white"/>
</svg>
