<svg width="1072" height="1069" viewBox="0 0 1072 1069" fill="none" xmlns="http://www.w3.org/2000/svg">
<path d="M376 0C481.93 0 587.86 0 697 0C697.323 140.545 697.323 140.545 697.386 194.36C697.402 208.432 697.419 222.505 697.437 236.577C697.439 238.279 697.441 239.981 697.443 241.683C697.477 268.82 697.537 295.956 697.611 323.092C697.686 350.981 697.735 378.87 697.752 406.76C697.754 410.699 697.757 414.638 697.759 418.577C697.76 419.74 697.76 419.74 697.761 420.926C697.77 433.407 697.808 445.887 697.855 458.367C697.902 470.913 697.92 483.46 697.908 496.006C697.903 502.805 697.911 509.602 697.954 516.4C697.993 522.624 697.995 528.846 697.967 535.069C697.964 537.321 697.974 539.573 697.999 541.825C698.198 560.751 698.198 560.751 693.108 567.217C691.78 568.521 690.415 569.79 689 571C688.091 571.998 687.193 573.007 686.313 574.031C685.168 575.253 685.168 575.253 684 576.5C680.257 580.572 676.736 584.734 673.321 589.082C670.309 592.87 667.214 596.587 664.125 600.312C659.063 606.428 654.144 612.622 649.379 618.973C646.96 622.051 644.418 624.976 641.827 627.909C638.851 631.315 635.991 634.814 633.125 638.312C632.512 639.059 631.899 639.805 631.268 640.574C627.308 645.398 623.356 650.229 619.407 655.062C616.279 658.881 613.139 662.69 610 666.5C601.939 676.285 593.903 686.086 586 696C584.501 697.875 583.001 699.75 581.5 701.625C580.83 702.463 580.16 703.301 579.469 704.164C578.984 704.77 578.5 705.376 578 706C574.041 705.459 570.424 704.54 566.649 703.235C542.196 694.851 516.866 697.276 493.614 708.191C489.61 710.151 485.774 712.34 482.016 714.738C480.059 715.963 478.07 716.982 476 718C475.339 717.482 475.339 717.482 474.665 716.953C460.688 706.003 446.622 695.156 432.188 684.812C427.312 681.294 422.642 677.544 417.963 673.771C410.421 667.7 402.708 661.857 395 656C391.853 653.606 388.707 651.21 385.563 648.812C384.471 647.983 384.471 647.983 383.356 647.137C382.347 646.367 382.347 646.367 381.317 645.582C380.723 645.131 380.13 644.679 379.518 644.214C376.058 641.446 376.058 641.446 375.751 639.064C375.751 638.265 375.752 637.465 375.752 636.641C375.747 635.718 375.743 634.795 375.738 633.844C375.744 632.82 375.749 631.797 375.754 630.743C375.752 629.659 375.75 628.574 375.747 627.457C375.742 623.779 375.751 620.102 375.76 616.425C375.759 613.779 375.757 611.133 375.755 608.487C375.75 602.713 375.754 596.938 375.762 591.164C375.774 582.577 375.775 573.991 375.773 565.404C375.77 550.962 375.777 536.52 375.789 522.078C375.801 507.772 375.808 493.467 375.811 479.162C375.811 478.273 375.811 477.385 375.811 476.469C375.812 471.957 375.812 467.445 375.813 462.933C375.817 430.95 375.831 398.967 375.849 366.984C375.868 335.908 375.882 304.831 375.89 273.755C375.891 271.802 375.892 269.848 375.892 267.895C375.896 252.025 375.901 236.155 375.905 220.285C375.923 146.857 375.963 73.4285 376 0Z" fill="white"/>
<path d="M1070 291C1071.37 323.211 1062.79 357.135 1050.38 386.68C1049.07 389.841 1047.91 393.027 1046.75 396.25C1039.29 415.625 1027.7 433.771 1015.19 450.25C1014.67 450.929 1014.16 451.608 1013.63 452.307C1010.54 456.282 1007.25 459.89 1003.63 463.387C1001.93 465.067 1000.37 466.819 998.813 468.625C993.693 474.554 988.356 480.284 983.001 486C982.04 487.027 982.04 487.027 981.059 488.074C969.107 500.43 954.201 510.579 939.688 519.688C932.78 524.034 926.383 528.922 920.001 534C920.872 534.617 921.744 535.235 922.641 535.871C929.477 540.727 936.241 545.658 942.931 550.715C946.293 553.217 949.704 555.643 953.126 558.062C958.925 562.173 964.494 566.504 970.001 571C971.688 572.334 973.375 573.667 975.063 575C982.785 581.214 989.526 587.371 995.696 595.164C997.965 597.956 1000.35 600.567 1002.81 603.188C1009.1 610.041 1014.57 617.461 1020 625C1020.48 625.657 1020.95 626.313 1021.44 626.99C1034.46 645.052 1045.2 664.699 1052.27 685.85C1053.11 688.331 1054 690.797 1054.88 693.266C1064.47 720.555 1070.19 749.05 1071 778C1071.02 778.716 1071.04 779.432 1071.07 780.17C1072.41 831.132 1059.75 883.885 1034 928C1033.5 928.866 1032.99 929.733 1032.47 930.625C1021.73 948.779 1008.93 965.277 993.895 980.074C992.033 981.968 990.293 983.922 988.563 985.938C981.44 994.17 973.615 1001.36 965.001 1008C964.317 1008.53 963.633 1009.06 962.929 1009.6C952.056 1017.93 940.994 1025.39 929.001 1032C928.291 1032.4 927.581 1032.8 926.85 1033.22C897.211 1049.94 864.58 1060.8 831.001 1066C829.416 1066.26 829.416 1066.26 827.799 1066.53C813.148 1068.62 798.391 1068.23 783.629 1068.14C779.941 1068.12 776.253 1068.11 772.565 1068.1C765.377 1068.08 758.189 1068.04 751.001 1068C750.83 1021.34 750.67 974.69 750.577 928.034C750.576 927.344 750.575 926.653 750.573 925.942C750.543 910.931 750.516 895.921 750.49 880.91C750.478 873.549 750.465 866.188 750.452 858.826C750.45 858.094 750.449 857.361 750.448 856.607C750.405 832.869 750.33 809.132 750.238 785.394C750.144 760.998 750.082 736.602 750.062 712.206C750.059 708.759 750.056 705.312 750.052 701.865C750.051 701.187 750.051 700.508 750.05 699.809C750.038 688.895 749.992 677.981 749.933 667.067C749.874 656.091 749.852 645.115 749.866 634.139C749.872 628.193 749.862 622.248 749.809 616.303C749.76 610.857 749.758 605.413 749.792 599.967C749.796 597.999 749.783 596.031 749.752 594.064C749.508 577.837 749.508 577.837 754.528 571.898C756.57 569.795 758.773 567.902 761.001 566C762.791 563.809 764.292 561.541 765.876 559.188C769.751 553.571 773.962 548.395 778.458 543.266C782.063 539.141 785.47 534.901 788.813 530.562C792.027 526.403 795.318 522.568 799.134 518.953C802.823 515.094 805.976 510.769 809.239 506.551C811.626 503.466 814.077 500.443 816.563 497.438C819.756 493.564 822.839 489.621 825.876 485.625C832.431 477.027 839.415 468.811 846.688 460.812C850.289 456.848 853.666 452.756 856.981 448.551C859.061 445.924 861.182 443.335 863.313 440.75C866.717 436.6 870.063 432.41 873.376 428.188C873.836 427.601 874.297 427.014 874.771 426.41C877.123 423.409 879.465 420.401 881.794 417.383C886.783 410.939 891.928 404.81 897.477 398.832C900.75 395.159 903.742 391.303 906.748 387.411C910.109 383.082 913.601 378.893 917.188 374.75C921.931 369.271 926.517 363.695 931.001 358C937.604 349.666 944.363 341.464 951.132 333.264C955.912 327.472 960.685 321.675 965.457 315.876C966.429 314.695 967.401 313.515 968.373 312.335C973.347 306.297 978.236 300.205 983.001 294C987.624 294.43 991.707 295.497 996.126 296.938C1025.84 306.245 1043.06 291 1070 291Z" fill="white"/>
<path d="M2 0C107.6 0 213.2 0 322 0C322 197.67 322 395.34 322 599C318.861 597.431 316.635 596.07 313.938 593.938C313.143 593.312 312.349 592.687 311.531 592.043C309.851 590.687 308.184 589.315 306.531 587.926C301.344 583.575 296.047 579.59 290.438 575.812C282.047 570.158 274.105 563.987 266.172 557.713C262.464 554.789 258.731 551.895 255 549C255.76 542.98 257.086 537.202 258.539 531.316C264.084 508.434 260.554 481.086 248.569 460.548C245.761 456.308 242.646 452.373 239.319 448.53C238.228 447.265 237.19 445.954 236.168 444.633C224.939 430.476 206.223 419.837 189 415C187.957 414.704 186.914 414.407 185.84 414.102C159.73 407.798 134.361 413.051 111.258 425.965C87.119 441.044 72.8714 463.131 65.7617 490.43C60.9499 512.984 64.4875 536.422 75.4375 556.688C77.1799 560.381 77.23 561.239 76 565C74.3452 567.093 74.3452 567.093 72.2109 569.145C71.045 570.284 71.045 570.284 69.8555 571.447C69.0369 572.228 68.2184 573.008 67.375 573.812C62.1986 578.817 57.1644 583.821 52.479 589.292C50.744 591.296 48.9065 593.159 47 595C44.4002 597.56 41.9373 600.168 39.5625 602.938C37.0401 605.877 34.3998 608.61 31.625 611.312C28.2606 614.62 25.2565 618.064 22.3125 621.75C19.9842 624.659 17.8063 627.378 14.875 629.688C11.6362 632.293 9.20962 635.197 6.61328 638.426C5 640 5 640 2 640C2 428.8 2 217.6 2 0Z" fill="white"/>
<path d="M223.012 590.236C226.236 591.476 228.727 593.712 231.376 595.875C232.63 596.881 233.883 597.886 235.138 598.891C236.097 599.666 236.097 599.666 237.077 600.456C240.091 602.875 243.141 605.247 246.188 607.625C250.345 610.878 254.445 614.184 258.501 617.563C263.519 621.692 268.757 625.456 274.059 629.204C285.795 637.508 297.428 645.887 308.114 655.525C310.094 657.145 310.094 657.145 312.902 658.667C317.67 661.61 321.325 663.885 323.109 669.468C323.517 673.802 323.546 677.998 323.444 682.344C323.449 684.01 323.46 685.676 323.475 687.342C323.502 691.906 323.454 696.467 323.394 701.031C323.342 705.958 323.359 710.884 323.368 715.81C323.375 724.341 323.337 732.87 323.27 741.401C323.172 753.734 323.141 766.067 323.126 778.4C323.099 798.411 323.02 818.422 322.906 838.432C322.796 857.869 322.711 877.305 322.66 896.742C322.657 897.953 322.654 899.163 322.65 900.41C322.625 909.879 322.602 919.347 322.579 928.815C322.466 975.211 322.224 1021.6 322.001 1068C216.401 1068 110.801 1068 2.00083 1068C1.51685 980.903 1.51685 980.903 1.41489 944.528C1.3914 936.202 1.36715 927.876 1.34165 919.551C1.33849 918.507 1.33531 917.464 1.33205 916.389C1.27989 899.551 1.18531 882.714 1.075 865.876C0.962716 848.592 0.896114 831.307 0.871772 814.022C0.85532 803.359 0.803393 792.698 0.705833 782.035C0.642314 774.72 0.62325 767.405 0.638816 760.089C0.64649 755.87 0.634879 751.654 0.570365 747.435C0.163046 719.452 0.163047 719.452 6.22423 712.643C8.63662 710.463 11.2508 708.725 14.0008 707C15.9367 705.052 15.9367 705.052 17.3758 703.188C25.407 693.782 34.0377 684.88 42.8368 676.196C45.4295 673.566 47.8243 670.802 50.2235 667.997C52.9506 664.934 55.8949 662.098 58.8133 659.219C60.798 657.206 62.6618 655.146 64.5008 653C67.7513 649.208 71.2553 645.729 74.8094 642.223C77.4218 639.573 79.8339 636.789 82.2547 633.965C84.7269 631.183 87.3851 628.607 90.036 625.997C91.9231 624.079 93.6877 622.105 95.4383 620.063C98.7025 616.263 102.213 612.77 105.778 609.254C109.013 605.974 112.023 602.514 115.001 599C120.818 599.862 126.167 602.257 131.612 604.385C152.608 612.362 177.932 611.584 198.524 602.684C208.619 598.137 208.619 598.137 217.864 592.122C221.001 590 221.001 590 223.012 590.236Z" fill="white"/>
<path d="M694 646C694.99 646 695.98 646 697 646C697 785.26 697 924.52 697 1068C591.07 1068 485.14 1068 376 1068C376 949.53 376 831.06 376 709C379.789 710.515 381.738 711.342 384.723 713.73C385.416 714.279 386.11 714.828 386.825 715.393C387.564 715.985 388.302 716.577 389.062 717.188C390.661 718.452 392.262 719.715 393.863 720.977C394.698 721.634 395.533 722.292 396.393 722.97C401.623 727.043 406.952 730.985 412.274 734.936C415.655 737.455 419.017 739.97 422.242 742.688C424.88 744.899 427.578 746.932 430.375 748.938C434.957 752.241 439.496 755.593 444 759C443.629 760.702 443.629 760.702 443.25 762.438C443.072 763.272 442.894 764.106 442.711 764.965C442.197 767.16 441.609 769.339 440.977 771.504C435.86 789.554 436.041 809.178 442 827C442.321 827.969 442.321 827.969 442.649 828.958C447.423 842.875 454.749 854.496 465 865C465.67 865.709 466.341 866.418 467.031 867.148C484.614 885.36 508.472 895.692 533.768 896.351C562.785 896.603 586.085 885.46 607 866C607.714 865.352 608.428 864.703 609.164 864.035C625.139 848.955 634.478 825.041 635.336 803.273C635.662 781.789 631.502 762.518 620 744C619.34 743.34 618.68 742.68 618 742C618.152 737.754 621.33 734.954 624 731.938C625.009 730.773 626.016 729.607 627.023 728.441C627.527 727.861 628.031 727.282 628.55 726.684C631.376 723.402 634.091 720.031 636.824 716.672C638.279 714.886 639.74 713.104 641.207 711.328C644.727 707.062 648.192 702.773 651.53 698.362C656.228 692.154 661.184 686.239 666.314 680.385C670.028 676.143 673.614 671.828 677.102 667.398C679.978 663.765 682.941 660.203 685.891 656.629C688.298 653.629 690.537 650.536 692.711 647.363C693.136 646.913 693.562 646.464 694 646Z" fill="white"/>
<path d="M751 0C819.206 0 884.146 3.38993 941.287 43.793C942.977 44.9837 944.68 46.1513 946.391 47.3125C957.286 54.7482 967.771 62.6742 978 71C978.587 71.4731 979.173 71.9462 979.777 72.4336C985.237 76.8933 989.881 81.9132 994.375 87.3125C998.105 91.7752 1001.89 96.1585 1005.86 100.414C1007 102 1007 102 1007 105C1005.54 105.35 1005.54 105.35 1004.05 105.707C985.73 110.426 968.49 118.569 955 132C954.187 132.799 953.373 133.598 952.535 134.422C936.858 150.822 927.017 174.255 926 197C925.948 197.764 925.897 198.529 925.844 199.316C925.151 218.223 930.169 238.753 940.68 254.52C942.198 257.372 942.522 258.82 942 262C940.637 264.184 940.637 264.184 938.688 266.438C935.719 269.956 932.819 273.496 930.01 277.142C925.363 283.166 920.49 288.859 915.316 294.445C912.503 297.548 909.912 300.783 907.324 304.074C904.284 307.901 901.174 311.668 898.062 315.438C896.842 316.917 895.622 318.396 894.402 319.875C893.528 320.935 893.528 320.935 892.636 322.016C887.822 327.854 883.024 333.703 878.312 339.625C872.829 346.501 867.207 353.263 861.61 360.046C859.567 362.526 857.532 365.012 855.5 367.5C851.071 372.92 846.62 378.322 842.168 383.722C838.786 387.825 835.418 391.938 832.062 396.062C829.536 399.16 826.966 402.199 824.312 405.188C821.577 408.28 819.099 411.49 816.652 414.812C813.246 419.322 809.596 423.641 806 428C804.499 429.833 802.999 431.666 801.5 433.5C799.24 436.263 796.979 439.025 794.715 441.785C790.396 447.052 786.12 452.347 781.922 457.711C780 460 780 460 777.586 462.387C774.769 465.233 772.314 468.271 769.875 471.438C769.174 472.336 769.174 472.336 768.459 473.252C765.928 476.499 763.416 479.761 760.91 483.027C760.412 483.672 759.914 484.317 759.401 484.981C758.438 486.227 757.481 487.477 756.529 488.732C755.399 490.192 754.205 491.602 753 493C752.34 493 751.68 493 751 493C751 330.31 751 167.62 751 0Z" fill="white"/>
<path d="M559.559 756.461C561.778 757.896 563.891 759.41 566.001 761C566.867 761.577 567.733 762.155 568.626 762.75C577.45 771.109 582.276 781.964 583.239 793.972C583.581 808.197 579.01 820.581 569.501 831.187C559.933 840.241 546.882 844.554 533.887 844.246C520.963 843.144 509.877 837.956 501.005 828.48C491.93 817.248 488.62 804.264 490.001 790C492.394 777.621 498.405 766.183 509.001 759C524.964 749.805 542.993 747.002 559.559 756.461Z" fill="white"/>
<path d="M190.001 472C196.208 476.957 200.427 482.96 204.001 490C204.416 490.797 204.831 491.594 205.259 492.414C209.793 502.657 209.614 515.839 206.501 526.5C204.033 532.734 200.273 537.879 196.001 543C195.444 543.682 194.887 544.364 194.313 545.067C187.368 552.797 176.752 556.571 166.559 557.219C151.625 557.581 140.407 553.998 129.251 543.813C119.66 533.438 115.503 520.959 116.001 506.938C117.496 492.753 123.968 481.61 134.837 472.567C151.343 460.619 173.007 461.142 190.001 472Z" fill="white"/>
<path d="M1052.75 165.687C1062.79 173.639 1068.15 182.062 1070.75 194.625C1071.76 208.22 1069.68 221.032 1061 232C1052.82 240.585 1042.63 247.925 1030.4 248.238C1014.52 248.561 1003.78 246.154 991.375 235.812C980.675 223.141 977.877 211.426 978.81 195.21C979.783 183.858 986.145 174.891 994 167C997.469 164.118 1000.94 161.942 1005 160C1005.73 159.644 1006.46 159.288 1007.21 158.922C1022.35 153.079 1040.13 156.269 1052.75 165.687Z" fill="white"/>
</svg>
