<svg width="3028" height="1719" viewBox="0 0 3028 1719" fill="none" xmlns="http://www.w3.org/2000/svg">
<path d="M1353 0C1458.93 0 1564.86 0 1674 0C1674.32 140.545 1674.32 140.545 1674.39 194.36C1674.4 208.432 1674.42 222.505 1674.44 236.577C1674.44 238.279 1674.44 239.981 1674.44 241.683C1674.48 268.82 1674.54 295.956 1674.61 323.092C1674.69 350.981 1674.74 378.87 1674.75 406.76C1674.75 410.699 1674.76 414.638 1674.76 418.577C1674.76 419.74 1674.76 419.74 1674.76 420.926C1674.77 433.407 1674.81 445.887 1674.85 458.367C1674.9 470.913 1674.92 483.46 1674.91 496.006C1674.9 502.805 1674.91 509.602 1674.95 516.4C1674.99 522.624 1674.99 528.846 1674.97 535.069C1674.96 537.321 1674.97 539.573 1675 541.825C1675.2 560.751 1675.2 560.751 1670.11 567.217C1668.78 568.521 1667.41 569.79 1666 571C1665.09 571.998 1664.19 573.007 1663.31 574.031C1662.17 575.253 1662.17 575.253 1661 576.5C1657.26 580.572 1653.74 584.734 1650.32 589.082C1647.31 592.87 1644.21 596.587 1641.13 600.312C1636.06 606.428 1631.14 612.622 1626.38 618.973C1623.96 622.051 1621.42 624.976 1618.83 627.909C1615.85 631.315 1612.99 634.814 1610.13 638.312C1609.51 639.059 1608.9 639.805 1608.27 640.574C1604.31 645.398 1600.36 650.229 1596.41 655.062C1593.28 658.881 1590.14 662.69 1587 666.5C1578.94 676.285 1570.9 686.086 1563 696C1561.5 697.875 1560 699.75 1558.5 701.625C1557.83 702.463 1557.16 703.301 1556.47 704.164C1555.98 704.77 1555.5 705.376 1555 706C1551.04 705.459 1547.42 704.54 1543.65 703.235C1519.2 694.851 1493.87 697.276 1470.61 708.191C1466.61 710.151 1462.77 712.34 1459.02 714.738C1457.06 715.963 1455.07 716.982 1453 718C1452.34 717.482 1452.34 717.482 1451.67 716.953C1437.69 706.003 1423.62 695.156 1409.19 684.812C1404.31 681.294 1399.64 677.544 1394.96 673.771C1387.42 667.7 1379.71 661.857 1372 656C1368.85 653.606 1365.71 651.21 1362.56 648.812C1361.47 647.983 1361.47 647.983 1360.36 647.137C1359.35 646.367 1359.35 646.367 1358.32 645.582C1357.72 645.131 1357.13 644.679 1356.52 644.214C1353.06 641.446 1353.06 641.446 1352.75 639.064C1352.75 638.265 1352.75 637.465 1352.75 636.641C1352.75 635.718 1352.74 634.795 1352.74 633.844C1352.74 632.82 1352.75 631.797 1352.75 630.743C1352.75 629.659 1352.75 628.574 1352.75 627.457C1352.74 623.779 1352.75 620.102 1352.76 616.425C1352.76 613.779 1352.76 611.133 1352.75 608.487C1352.75 602.713 1352.75 596.938 1352.76 591.164C1352.77 582.577 1352.77 573.991 1352.77 565.404C1352.77 550.962 1352.78 536.52 1352.79 522.078C1352.8 507.772 1352.81 493.467 1352.81 479.162C1352.81 478.273 1352.81 477.385 1352.81 476.469C1352.81 471.957 1352.81 467.445 1352.81 462.933C1352.82 430.95 1352.83 398.967 1352.85 366.984C1352.87 335.908 1352.88 304.831 1352.89 273.755C1352.89 271.802 1352.89 269.848 1352.89 267.895C1352.9 252.025 1352.9 236.155 1352.9 220.285C1352.92 146.857 1352.96 73.4285 1353 0Z" fill="white"/>
<path d="M2047 291C2048.37 323.211 2039.79 357.135 2027.38 386.68C2026.07 389.841 2024.91 393.027 2023.75 396.25C2016.29 415.625 2004.7 433.771 1992.19 450.25C1991.67 450.929 1991.16 451.608 1990.63 452.307C1987.54 456.282 1984.25 459.89 1980.63 463.387C1978.93 465.067 1977.37 466.819 1975.81 468.625C1970.69 474.554 1965.36 480.284 1960 486C1959.04 487.027 1959.04 487.027 1958.06 488.074C1946.11 500.43 1931.2 510.579 1916.69 519.688C1909.78 524.034 1903.38 528.922 1897 534C1897.87 534.617 1898.74 535.235 1899.64 535.871C1906.48 540.727 1913.24 545.658 1919.93 550.715C1923.29 553.217 1926.7 555.643 1930.13 558.062C1935.93 562.173 1941.49 566.504 1947 571C1948.69 572.334 1950.38 573.667 1952.06 575C1959.79 581.214 1966.53 587.371 1972.7 595.164C1974.97 597.956 1977.35 600.567 1979.81 603.188C1986.1 610.041 1991.57 617.461 1997 625C1997.48 625.657 1997.95 626.313 1998.44 626.99C2011.46 645.052 2022.2 664.699 2029.27 685.85C2030.11 688.331 2031 690.797 2031.88 693.266C2041.47 720.555 2047.19 749.05 2048 778C2048.02 778.716 2048.04 779.432 2048.07 780.17C2049.41 831.132 2036.75 883.885 2011 928C2010.5 928.866 2009.99 929.733 2009.47 930.625C1998.73 948.779 1985.93 965.277 1970.9 980.074C1969.03 981.968 1967.29 983.922 1965.56 985.938C1958.44 994.17 1950.61 1001.36 1942 1008C1941.32 1008.53 1940.63 1009.06 1939.93 1009.6C1929.06 1017.93 1917.99 1025.39 1906 1032C1905.29 1032.4 1904.58 1032.8 1903.85 1033.22C1874.21 1049.94 1841.58 1060.8 1808 1066C1806.42 1066.26 1806.42 1066.26 1804.8 1066.53C1790.15 1068.62 1775.39 1068.23 1760.63 1068.14C1756.94 1068.12 1753.25 1068.11 1749.57 1068.1C1742.38 1068.08 1735.19 1068.04 1728 1068C1727.83 1021.34 1727.67 974.69 1727.58 928.034C1727.58 927.344 1727.57 926.653 1727.57 925.942C1727.54 910.931 1727.52 895.921 1727.49 880.91C1727.48 873.549 1727.46 866.188 1727.45 858.826C1727.45 858.094 1727.45 857.361 1727.45 856.607C1727.4 832.869 1727.33 809.132 1727.24 785.394C1727.14 760.998 1727.08 736.602 1727.06 712.206C1727.06 708.759 1727.06 705.312 1727.05 701.865C1727.05 701.187 1727.05 700.508 1727.05 699.809C1727.04 688.895 1726.99 677.981 1726.93 667.067C1726.87 656.091 1726.85 645.115 1726.87 634.139C1726.87 628.193 1726.86 622.248 1726.81 616.303C1726.76 610.857 1726.76 605.413 1726.79 599.967C1726.8 597.999 1726.78 596.031 1726.75 594.064C1726.51 577.837 1726.51 577.837 1731.53 571.898C1733.57 569.795 1735.77 567.902 1738 566C1739.79 563.809 1741.29 561.541 1742.88 559.188C1746.75 553.571 1750.96 548.395 1755.46 543.266C1759.06 539.141 1762.47 534.901 1765.81 530.562C1769.03 526.403 1772.32 522.568 1776.13 518.953C1779.82 515.094 1782.98 510.769 1786.24 506.551C1788.63 503.466 1791.08 500.443 1793.56 497.438C1796.76 493.564 1799.84 489.621 1802.88 485.625C1809.43 477.027 1816.41 468.811 1823.69 460.812C1827.29 456.848 1830.67 452.756 1833.98 448.551C1836.06 445.924 1838.18 443.335 1840.31 440.75C1843.72 436.6 1847.06 432.41 1850.38 428.188C1850.84 427.601 1851.3 427.014 1851.77 426.41C1854.12 423.409 1856.47 420.401 1858.79 417.383C1863.78 410.939 1868.93 404.81 1874.48 398.832C1877.75 395.159 1880.74 391.303 1883.75 387.411C1887.11 383.082 1890.6 378.893 1894.19 374.75C1898.93 369.271 1903.52 363.695 1908 358C1914.6 349.666 1921.36 341.464 1928.13 333.264C1932.91 327.472 1937.69 321.675 1942.46 315.876C1943.43 314.695 1944.4 313.515 1945.37 312.335C1950.35 306.297 1955.24 300.205 1960 294C1964.62 294.43 1968.71 295.497 1973.13 296.938C2002.84 306.245 2020.06 291 2047 291Z" fill="white"/>
<path d="M979 0C1084.6 0 1190.2 0 1299 0C1299 197.67 1299 395.34 1299 599C1295.86 597.431 1293.63 596.07 1290.94 593.938C1290.14 593.312 1289.35 592.687 1288.53 592.043C1286.85 590.687 1285.18 589.315 1283.53 587.926C1278.34 583.575 1273.05 579.59 1267.44 575.812C1259.05 570.158 1251.1 563.987 1243.17 557.713C1239.46 554.789 1235.73 551.895 1232 549C1232.76 542.98 1234.09 537.202 1235.54 531.316C1241.08 508.434 1237.55 481.086 1225.57 460.548C1222.76 456.308 1219.65 452.373 1216.32 448.53C1215.23 447.265 1214.19 445.954 1213.17 444.633C1201.94 430.476 1183.22 419.837 1166 415C1164.96 414.704 1163.91 414.407 1162.84 414.102C1136.73 407.798 1111.36 413.051 1088.26 425.965C1064.12 441.044 1049.87 463.131 1042.76 490.43C1037.95 512.984 1041.49 536.422 1052.44 556.688C1054.18 560.381 1054.23 561.239 1053 565C1051.35 567.093 1051.35 567.093 1049.21 569.145C1048.04 570.284 1048.04 570.284 1046.86 571.447C1046.04 572.228 1045.22 573.008 1044.38 573.812C1039.2 578.817 1034.16 583.821 1029.48 589.292C1027.74 591.296 1025.91 593.159 1024 595C1021.4 597.56 1018.94 600.168 1016.56 602.938C1014.04 605.877 1011.4 608.61 1008.62 611.312C1005.26 614.62 1002.26 618.064 999.312 621.75C996.984 624.659 994.806 627.378 991.875 629.688C988.636 632.293 986.21 635.197 983.613 638.426C982 640 982 640 979 640C979 428.8 979 217.6 979 0Z" fill="white"/>
<path d="M1200.01 590.236C1203.24 591.476 1205.73 593.712 1208.38 595.875C1209.63 596.881 1210.88 597.886 1212.14 598.891C1213.1 599.666 1213.1 599.666 1214.08 600.456C1217.09 602.875 1220.14 605.247 1223.19 607.625C1227.34 610.878 1231.45 614.184 1235.5 617.563C1240.52 621.692 1245.76 625.456 1251.06 629.204C1262.8 637.508 1274.43 645.887 1285.11 655.525C1287.09 657.145 1287.09 657.145 1289.9 658.667C1294.67 661.61 1298.32 663.885 1300.11 669.468C1300.52 673.802 1300.55 677.998 1300.44 682.344C1300.45 684.01 1300.46 685.676 1300.47 687.342C1300.5 691.906 1300.45 696.467 1300.39 701.031C1300.34 705.958 1300.36 710.884 1300.37 715.81C1300.37 724.341 1300.34 732.87 1300.27 741.401C1300.17 753.734 1300.14 766.067 1300.13 778.4C1300.1 798.411 1300.02 818.422 1299.91 838.432C1299.8 857.869 1299.71 877.305 1299.66 896.742C1299.66 897.953 1299.65 899.163 1299.65 900.41C1299.63 909.879 1299.6 919.347 1299.58 928.815C1299.47 975.211 1299.22 1021.6 1299 1068C1193.4 1068 1087.8 1068 979.001 1068C978.517 980.903 978.517 980.903 978.415 944.528C978.391 936.202 978.367 927.876 978.342 919.551C978.338 918.507 978.335 917.464 978.332 916.389C978.28 899.551 978.185 882.714 978.075 865.876C977.963 848.592 977.896 831.307 977.872 814.022C977.855 803.359 977.803 792.698 977.706 782.035C977.642 774.72 977.623 767.405 977.639 760.089C977.646 755.87 977.635 751.654 977.57 747.435C977.163 719.452 977.163 719.452 983.224 712.643C985.637 710.463 988.251 708.725 991.001 707C992.937 705.052 992.937 705.052 994.376 703.188C1002.41 693.782 1011.04 684.88 1019.84 676.196C1022.43 673.566 1024.82 670.802 1027.22 667.997C1029.95 664.934 1032.89 662.098 1035.81 659.219C1037.8 657.206 1039.66 655.146 1041.5 653C1044.75 649.208 1048.26 645.729 1051.81 642.223C1054.42 639.573 1056.83 636.789 1059.25 633.965C1061.73 631.183 1064.39 628.607 1067.04 625.997C1068.92 624.079 1070.69 622.105 1072.44 620.063C1075.7 616.263 1079.21 612.77 1082.78 609.254C1086.01 605.974 1089.02 602.514 1092 599C1097.82 599.862 1103.17 602.257 1108.61 604.385C1129.61 612.362 1154.93 611.584 1175.52 602.684C1185.62 598.137 1185.62 598.137 1194.86 592.122C1198 590 1198 590 1200.01 590.236Z" fill="white"/>
<path d="M1671 646C1671.99 646 1672.98 646 1674 646C1674 785.26 1674 924.52 1674 1068C1568.07 1068 1462.14 1068 1353 1068C1353 949.53 1353 831.06 1353 709C1356.79 710.515 1358.74 711.342 1361.72 713.73C1362.42 714.279 1363.11 714.828 1363.83 715.393C1364.56 715.985 1365.3 716.577 1366.06 717.188C1367.66 718.452 1369.26 719.715 1370.86 720.977C1371.7 721.634 1372.53 722.292 1373.39 722.97C1378.62 727.043 1383.95 730.985 1389.27 734.936C1392.66 737.455 1396.02 739.97 1399.24 742.688C1401.88 744.899 1404.58 746.932 1407.38 748.938C1411.96 752.241 1416.5 755.593 1421 759C1420.63 760.702 1420.63 760.702 1420.25 762.438C1420.07 763.272 1419.89 764.106 1419.71 764.965C1419.2 767.16 1418.61 769.339 1417.98 771.504C1412.86 789.554 1413.04 809.178 1419 827C1419.32 827.969 1419.32 827.969 1419.65 828.958C1424.42 842.875 1431.75 854.496 1442 865C1442.67 865.709 1443.34 866.418 1444.03 867.148C1461.61 885.36 1485.47 895.692 1510.77 896.351C1539.79 896.603 1563.08 885.46 1584 866C1584.71 865.352 1585.43 864.703 1586.16 864.035C1602.14 848.955 1611.48 825.041 1612.34 803.273C1612.66 781.789 1608.5 762.518 1597 744C1596.34 743.34 1595.68 742.68 1595 742C1595.15 737.754 1598.33 734.954 1601 731.938C1602.01 730.773 1603.02 729.607 1604.02 728.441C1604.53 727.861 1605.03 727.282 1605.55 726.684C1608.38 723.402 1611.09 720.031 1613.82 716.672C1615.28 714.886 1616.74 713.104 1618.21 711.328C1621.73 707.062 1625.19 702.773 1628.53 698.362C1633.23 692.154 1638.18 686.239 1643.31 680.385C1647.03 676.143 1650.61 671.828 1654.1 667.398C1656.98 663.765 1659.94 660.203 1662.89 656.629C1665.3 653.629 1667.54 650.536 1669.71 647.363C1670.14 646.913 1670.56 646.464 1671 646Z" fill="white"/>
<path d="M0 1248C31.7831 1247.92 63.5662 1247.83 96.3125 1247.75C106.299 1247.71 116.286 1247.68 126.575 1247.64C138.895 1247.62 138.895 1247.62 144.686 1247.62C148.678 1247.61 152.67 1247.6 156.663 1247.58C201.955 1247.34 249.18 1249.21 284 1282C303.628 1302.59 307.772 1325.81 307.242 1353.35C307.017 1361.07 305.674 1367.76 303 1375C302.649 1376.03 302.299 1377.06 301.938 1378.12C295.085 1396.42 280.892 1414.49 263 1423C263.518 1423.2 264.036 1423.4 264.57 1423.61C274.962 1427.68 284.419 1431.68 293 1439C294.27 1440.05 294.27 1440.05 295.566 1441.12C312.589 1455.72 322.283 1474.86 325 1497C325.227 1501.58 325.27 1506.16 325.295 1510.75C325.307 1512.19 325.327 1513.63 325.357 1515.08C325.582 1526.04 324.118 1535.47 321 1546C320.679 1547.13 320.357 1548.27 320.026 1549.43C314.487 1568.45 298.528 1584.17 281.797 1594.02C242.123 1615.39 195.775 1614.32 152.055 1614.2C147.219 1614.19 142.383 1614.19 137.546 1614.19C123.489 1614.18 109.432 1614.15 95.375 1614.12C63.9013 1614.08 32.4275 1614.04 0 1614C0 1493.22 0 1372.44 0 1248ZM70 1303C70 1335.34 70 1367.68 70 1401C88.5537 1401.09 88.5537 1401.09 107.107 1401.15C114.689 1401.16 122.27 1401.18 129.851 1401.23C135.972 1401.26 142.093 1401.28 148.214 1401.28C150.534 1401.29 152.855 1401.3 155.175 1401.32C179.364 1401.48 206.389 1400.57 225.152 1383.03C234.35 1372.9 237.635 1361.99 237.281 1348.49C236.324 1336.62 232.056 1325.89 223.223 1317.66C214.38 1311.07 203.689 1307.29 193 1305C192.232 1304.83 191.463 1304.66 190.672 1304.49C178.77 1302.27 166.726 1302.75 154.668 1302.8C152.22 1302.81 149.773 1302.81 147.325 1302.81C140.922 1302.82 134.519 1302.84 128.116 1302.86C120.412 1302.89 112.708 1302.9 105.005 1302.91C93.3363 1302.93 81.6683 1302.96 70 1303ZM70 1456C70 1489.99 70 1523.98 70 1559C89.5469 1559.06 89.5469 1559.06 109.094 1559.1C117.083 1559.11 125.072 1559.12 133.062 1559.15C139.513 1559.17 145.965 1559.18 152.416 1559.19C154.86 1559.19 157.303 1559.2 159.747 1559.21C171.555 1559.26 183.285 1559.17 195.054 1558.12C196.348 1558.01 196.348 1558.01 197.667 1557.89C213.766 1556.28 234.693 1551.32 245.977 1538.81C255.015 1525.81 258.022 1511.35 255.469 1495.75C252.269 1483.22 244.745 1473.58 233.75 1466.75C218.681 1458.28 201.431 1455.83 184.434 1455.89C183.194 1455.89 181.954 1455.89 180.676 1455.89C177.299 1455.89 173.921 1455.89 170.544 1455.9C167.006 1455.9 163.468 1455.91 159.93 1455.91C153.24 1455.91 146.55 1455.92 139.86 1455.93C130.813 1455.94 121.766 1455.95 112.719 1455.95C98.4795 1455.96 84.2398 1455.98 70 1456Z" fill="white"/>
<path d="M1728 0C1796.21 0 1861.15 3.38993 1918.29 43.793C1919.98 44.9837 1921.68 46.1513 1923.39 47.3125C1934.29 54.7482 1944.77 62.6742 1955 71C1955.59 71.4731 1956.17 71.9462 1956.78 72.4336C1962.24 76.8933 1966.88 81.9132 1971.38 87.3125C1975.1 91.7752 1978.89 96.1585 1982.86 100.414C1984 102 1984 102 1984 105C1982.54 105.35 1982.54 105.35 1981.05 105.707C1962.73 110.426 1945.49 118.569 1932 132C1931.19 132.799 1930.37 133.598 1929.54 134.422C1913.86 150.822 1904.02 174.255 1903 197C1902.95 197.764 1902.9 198.529 1902.84 199.316C1902.15 218.223 1907.17 238.753 1917.68 254.52C1919.2 257.372 1919.52 258.82 1919 262C1917.64 264.184 1917.64 264.184 1915.69 266.438C1912.72 269.956 1909.82 273.496 1907.01 277.142C1902.36 283.166 1897.49 288.859 1892.32 294.445C1889.5 297.548 1886.91 300.783 1884.32 304.074C1881.28 307.901 1878.17 311.668 1875.06 315.438C1873.84 316.917 1872.62 318.396 1871.4 319.875C1870.53 320.935 1870.53 320.935 1869.64 322.016C1864.82 327.854 1860.02 333.703 1855.31 339.625C1849.83 346.501 1844.21 353.263 1838.61 360.046C1836.57 362.526 1834.53 365.012 1832.5 367.5C1828.07 372.92 1823.62 378.322 1819.17 383.722C1815.79 387.825 1812.42 391.938 1809.06 396.062C1806.54 399.16 1803.97 402.199 1801.31 405.188C1798.58 408.28 1796.1 411.49 1793.65 414.812C1790.25 419.322 1786.6 423.641 1783 428C1781.5 429.833 1780 431.666 1778.5 433.5C1776.24 436.263 1773.98 439.025 1771.71 441.785C1767.4 447.052 1763.12 452.347 1758.92 457.711C1757 460 1757 460 1754.59 462.387C1751.77 465.233 1749.31 468.271 1746.88 471.438C1746.17 472.336 1746.17 472.336 1745.46 473.252C1742.93 476.499 1740.42 479.761 1737.91 483.027C1737.41 483.672 1736.91 484.317 1736.4 484.981C1735.44 486.227 1734.48 487.477 1733.53 488.732C1732.4 490.192 1731.2 491.602 1730 493C1729.34 493 1728.68 493 1728 493C1728 330.31 1728 167.62 1728 0Z" fill="white"/>
<path d="M1342 1352C1342 1352.66 1342 1353.32 1342 1354C1342.72 1354.25 1343.44 1354.5 1344.19 1354.76C1349.51 1357.11 1353.64 1361.23 1358 1365C1358.53 1365.45 1359.06 1365.89 1359.6 1366.35C1388.19 1390.7 1399.43 1424.43 1402.44 1460.82C1403.31 1472.41 1402.83 1483.32 1402 1495C1330.06 1495 1258.12 1495 1184 1495C1191.01 1516.02 1198.2 1531.95 1217 1544C1217.94 1544.62 1218.87 1545.23 1219.84 1545.87C1242.9 1560.26 1273.11 1562.5 1299.23 1556.77C1316.64 1552.58 1335.76 1544.41 1347 1530C1351 1531.58 1353.23 1534.2 1356.06 1537.37C1357.04 1538.46 1358.02 1539.55 1359 1540.64C1359.49 1541.2 1359.99 1541.76 1360.5 1542.33C1361.94 1543.93 1363.39 1545.5 1364.85 1547.07C1370.2 1552.82 1375.31 1558.69 1380.22 1564.82C1381.97 1567.03 1381.97 1567.03 1384 1569C1383.33 1577.03 1376.03 1582.13 1370.31 1587.06C1364.59 1591.78 1358.58 1595.58 1352 1599C1351.38 1599.32 1350.76 1599.64 1350.12 1599.98C1315 1617.99 1269.56 1623.48 1231 1614C1230.15 1613.79 1229.29 1613.58 1228.41 1613.37C1216.93 1610.46 1205.82 1606.84 1195 1602C1194.02 1601.56 1194.02 1601.56 1193.02 1601.12C1168.53 1590.04 1148.98 1570.76 1135 1548C1134.64 1547.41 1134.27 1546.81 1133.89 1546.2C1114.21 1513.48 1111.32 1470.84 1120.27 1434.25C1125.33 1414.89 1134.16 1396.4 1147 1381C1147.65 1380.2 1148.29 1379.41 1148.95 1378.59C1153.22 1373.54 1157.93 1369.38 1163.13 1365.3C1164.99 1363.81 1166.81 1362.25 1168.56 1360.63C1182.94 1347.55 1201.4 1339.89 1220 1335C1221.09 1334.69 1222.17 1334.37 1223.29 1334.05C1261.04 1324.04 1309.31 1329.83 1342 1352ZM1204 1408C1203.3 1408.69 1202.61 1409.37 1201.89 1410.08C1192.47 1419.95 1183 1435.85 1183 1450C1234.81 1450 1286.62 1450 1340 1450C1334.29 1427.17 1324.45 1408.73 1304 1396C1270.91 1377.4 1231.41 1380.63 1204 1408Z" fill="white"/>
<path d="M508.759 1329.88C541.565 1329.13 579.254 1337.85 603.95 1360.81C605.091 1361.96 606.219 1363.12 607.333 1364.3C609.094 1366.09 610.95 1367.69 612.876 1369.31C638.285 1391.44 651.11 1426.16 653.829 1459.09C654.136 1464.29 654.145 1469.48 654.126 1474.69C654.13 1475.76 654.134 1476.84 654.138 1477.95C654.136 1479.53 654.136 1479.53 654.134 1481.14C654.133 1482.07 654.131 1483.01 654.13 1483.97C653.973 1487.66 653.459 1491.33 653.001 1495C580.731 1495 508.461 1495 434.001 1495C443.129 1520.86 453.136 1537.63 478.001 1550C504.277 1562.2 535.359 1562.52 562.501 1552.94C575.969 1547.87 588.596 1541.09 598.001 1530C601.441 1531.43 603.039 1533.05 605.188 1536.06C607.718 1539.44 610.343 1542.44 613.376 1545.38C617.532 1549.43 621.168 1553.75 624.778 1558.29C627.572 1561.7 630.586 1564.87 633.665 1568.03C635.001 1570 635.001 1570 635.013 1571.93C626.197 1589.97 598.652 1602.34 580.985 1608.77C565.675 1613.93 549.255 1617.08 533.095 1617.24C532.261 1617.25 531.427 1617.26 530.567 1617.27C512.407 1617.44 494.733 1617.44 477.001 1613C476.133 1612.79 475.265 1612.57 474.371 1612.35C436.058 1602.56 404.416 1580.03 384.001 1546C375.11 1530.37 369.42 1510.9 368.001 1493C367.905 1491.82 367.905 1491.82 367.807 1490.62C366.209 1469.75 367.242 1449.18 373.001 1429C373.269 1428 373.269 1428 373.543 1426.99C379.622 1404.52 391.877 1382.85 410.001 1368C410.85 1367.25 411.7 1366.5 412.575 1365.73C440.286 1341.69 472.47 1331.52 508.759 1329.88ZM452.001 1410C442.684 1421.1 434.001 1435.12 434.001 1450C485.481 1450 536.961 1450 590.001 1450C586.073 1431.67 580.086 1419.31 567.001 1406C566.399 1405.39 565.797 1404.77 565.177 1404.14C533.049 1373.82 481.396 1379.19 452.001 1410Z" fill="white"/>
<path d="M1785 1334C1807.77 1334 1830.54 1334 1854 1334C1857.99 1341.99 1861.73 1349.84 1865.12 1358.06C1868.93 1367.16 1872.84 1376.19 1876.88 1385.19C1881.59 1395.7 1886.1 1406.3 1890.52 1416.94C1893.83 1424.89 1897.21 1432.8 1900.81 1440.62C1903.72 1446.96 1906.33 1453.34 1908.75 1459.87C1913.14 1471.68 1918.21 1483.18 1923.26 1494.71C1926.99 1503.24 1930.65 1511.81 1934.31 1520.37C1934.98 1521.94 1935.66 1523.51 1936.33 1525.08C1937.88 1528.72 1939.44 1532.36 1941 1536C1947.27 1521.95 1953.52 1507.9 1959.61 1493.78C1959.99 1492.91 1960.36 1492.05 1960.75 1491.16C1961.11 1490.31 1961.48 1489.46 1961.85 1488.59C1963.06 1485.86 1964.33 1483.17 1965.6 1480.47C1967.14 1477.11 1968.41 1473.86 1969.38 1470.3C1971.23 1463.74 1974.11 1457.62 1976.89 1451.43C1978.24 1448.43 1979.58 1445.42 1980.92 1442.42C1981.61 1440.87 1982.3 1439.32 1982.99 1437.78C1986.27 1430.41 1989.49 1423.02 1992.69 1415.62C1992.95 1415.01 1993.22 1414.4 1993.49 1413.77C1997.87 1403.65 2002.21 1393.51 2006.53 1383.36C2009.07 1377.43 2011.64 1371.52 2014.28 1365.63C2014.55 1365.03 2014.82 1364.42 2015.1 1363.79C2016.39 1360.91 2017.69 1358.02 2018.99 1355.14C2021.67 1349.19 2024.09 1343.23 2026.22 1337.07C2027 1335 2027 1335 2028 1334C2029.99 1333.91 2031.99 1333.88 2033.99 1333.89C2035.27 1333.89 2036.55 1333.89 2037.87 1333.89C2039.28 1333.89 2040.69 1333.9 2042.1 1333.9C2043.53 1333.9 2044.96 1333.91 2046.4 1333.91C2050.18 1333.91 2053.96 1333.92 2057.74 1333.93C2061.59 1333.94 2065.44 1333.95 2069.3 1333.95C2076.87 1333.96 2084.43 1333.98 2092 1334C2091.43 1337.6 2090.87 1340.75 2089.33 1344.07C2088.83 1345.17 2088.83 1345.17 2088.31 1346.29C2087.96 1347.04 2087.61 1347.79 2087.25 1348.56C2084.88 1353.67 2082.67 1358.79 2080.69 1364.06C2078.23 1370.48 2075.58 1376.79 2072.83 1383.09C2072.35 1384.2 2071.87 1385.3 2071.38 1386.44C2070.37 1388.77 2069.36 1391.09 2068.35 1393.42C2066.83 1396.9 2065.32 1400.38 2063.81 1403.86C2058.82 1415.35 2053.76 1426.8 2048.55 1438.19C2044.81 1446.39 2041.19 1454.64 2037.63 1462.92C2036.61 1465.29 2035.58 1467.67 2034.55 1470.04C2031.6 1476.87 2028.67 1483.7 2025.94 1490.63C2023.97 1495.57 2021.88 1500.47 2019.81 1505.37C2019.38 1506.4 2018.95 1507.43 2018.51 1508.49C2015.3 1516.09 2011.94 1523.61 2008.54 1531.13C2004.27 1540.6 2000.1 1550.11 1995.94 1559.62C1994.43 1563.08 1992.91 1566.53 1991.4 1569.98C1990.85 1571.24 1990.85 1571.24 1990.29 1572.52C1986.84 1580.38 1983.35 1588.22 1979.86 1596.06C1972.47 1612.55 1972.47 1612.55 1965.88 1629.37C1953.99 1661.99 1933.87 1694.92 1901.79 1710.57C1897.03 1712.53 1892.02 1713.53 1887 1714.62C1886.04 1714.84 1885.08 1715.06 1884.09 1715.28C1864.18 1719.71 1842.9 1719.67 1823 1715C1822.27 1714.84 1821.53 1714.68 1820.78 1714.51C1805.29 1711.05 1790.97 1704.6 1779 1694C1779.54 1689.55 1780.65 1686.31 1782.81 1682.39C1783.39 1681.34 1783.96 1680.28 1784.56 1679.19C1785.18 1678.07 1785.8 1676.96 1786.44 1675.81C1787.71 1673.49 1788.98 1671.16 1790.25 1668.84C1790.89 1667.69 1791.52 1666.54 1792.17 1665.35C1794.79 1660.55 1797.34 1655.72 1799.88 1650.87C1800.51 1649.67 1800.51 1649.67 1801.15 1648.44C1802.1 1646.62 1803.05 1644.81 1804 1643C1807.41 1644.24 1810.05 1645.61 1812.88 1647.87C1819.04 1652.8 1825.1 1655.62 1832.62 1657.69C1833.73 1658.01 1833.73 1658.01 1834.86 1658.33C1847.29 1661.86 1859.72 1662.62 1872 1658C1872.85 1657.68 1873.7 1657.37 1874.58 1657.04C1887.61 1651.4 1893.81 1639.01 1900 1627C1900.56 1625.93 1901.13 1624.87 1901.71 1623.77C1904.48 1618.22 1905.46 1615.24 1904 1609C1902.74 1605.73 1901.21 1602.59 1899.69 1599.44C1893.86 1587.07 1888.42 1574.55 1883 1562C1877.26 1548.74 1871.48 1535.52 1865.4 1522.41C1860.77 1512.42 1856.57 1502.27 1852.75 1491.94C1850.06 1484.87 1846.84 1478.07 1843.65 1471.22C1838.83 1460.78 1834.37 1450.19 1829.95 1439.57C1827.03 1432.59 1823.94 1425.76 1820.5 1419.02C1817.65 1413.27 1815.16 1407.34 1812.62 1401.44C1812.05 1400.1 1811.47 1398.76 1810.9 1397.42C1807.24 1388.92 1803.61 1380.41 1800.05 1371.87C1798.43 1368.01 1796.79 1364.16 1795.14 1360.31C1794.64 1359.14 1794.14 1357.98 1793.63 1356.77C1792.65 1354.48 1791.67 1352.18 1790.68 1349.89C1790.23 1348.84 1789.78 1347.79 1789.32 1346.7C1788.92 1345.77 1788.52 1344.84 1788.11 1343.88C1786.87 1340.66 1785.95 1337.32 1785 1334Z" fill="white"/>
<path d="M2909.26 1329.87C2946.87 1329.14 2984.73 1336.21 3018 1354C3017.45 1359.31 3015.63 1363.21 3013.18 1367.85C3012.79 1368.6 3012.41 1369.34 3012.01 1370.1C3010.79 1372.47 3009.55 1374.83 3008.31 1377.19C3007.5 1378.75 3006.69 1380.32 3005.88 1381.88C3001.68 1389.97 2997.41 1398.02 2993 1406C2988.61 1404.69 2984.66 1402.91 2980.58 1400.88C2950.54 1385.94 2910.96 1379.66 2878.62 1390.25C2869.22 1393.84 2861.34 1399.33 2857.12 1408.75C2855.12 1414.68 2856.26 1420.29 2857.88 1426.19C2866.44 1437.53 2883.41 1441.5 2896.62 1444.06C2897.88 1444.32 2899.14 1444.57 2900.44 1444.83C2908.66 1446.45 2916.9 1447.8 2925.19 1449C2958.75 1453.88 2995.51 1461.93 3017.59 1490.03C3028.13 1505.74 3029.3 1527.65 3026.31 1545.85C3022.21 1566.45 3009.8 1582.93 2992.94 1595.06C2969.42 1610 2940.13 1617.05 2912.46 1617.2C2911.59 1617.21 2910.71 1617.22 2909.81 1617.22C2875.7 1617.44 2844.41 1613.94 2812.26 1601.84C2810.07 1601.03 2807.87 1600.26 2805.66 1599.5C2796.64 1596.36 2788.93 1592.35 2781 1587C2781.62 1581.99 2783.83 1577.95 2786.08 1573.52C2786.49 1572.7 2786.9 1571.88 2787.32 1571.05C2788.18 1569.32 2789.05 1567.6 2789.92 1565.88C2791.24 1563.28 2792.55 1560.67 2793.86 1558.05C2794.7 1556.37 2795.55 1554.69 2796.39 1553.02C2796.78 1552.25 2797.16 1551.48 2797.56 1550.68C2800.25 1545.38 2803.08 1540.18 2806 1535C2809.89 1535.7 2812.65 1536.75 2816.08 1538.75C2832.83 1548.14 2851.33 1553.85 2870 1558C2870.73 1558.18 2871.46 1558.35 2872.21 1558.53C2882.92 1561.09 2893.67 1561.3 2904.62 1561.37C2905.32 1561.38 2906.01 1561.39 2906.72 1561.4C2923.04 1561.54 2940.92 1560.07 2953.61 1548.65C2959.18 1542.58 2960.45 1538.28 2960.33 1530.07C2959.72 1524.34 2957.4 1520.95 2952.97 1517.35C2936.38 1506.43 2914.56 1504.85 2895.46 1501.78C2873.86 1498.32 2852.2 1494.74 2832 1486C2830.93 1485.54 2829.86 1485.08 2828.75 1484.6C2812.65 1477.15 2800.19 1464.39 2793.78 1447.84C2787.69 1430.22 2786.95 1407.44 2794 1390C2794.23 1389.38 2794.46 1388.76 2794.7 1388.12C2802.59 1367.38 2821.75 1352.39 2841.33 1343.23C2862.97 1333.59 2885.84 1330.77 2909.26 1329.87Z" fill="white"/>
<path d="M2635.82 1329.88C2670.42 1329.09 2705.63 1337.77 2732 1361C2732.84 1361.72 2733.68 1362.44 2734.54 1363.18C2744.69 1372.05 2757.5 1383.87 2759 1398C2758.45 1398.31 2757.89 1398.62 2757.32 1398.94C2754.61 1400.46 2751.9 1401.98 2749.19 1403.5C2748.18 1404.07 2747.16 1404.64 2746.12 1405.22C2740.22 1408.56 2734.37 1411.96 2728.57 1415.46C2727.96 1415.83 2727.34 1416.2 2726.71 1416.58C2723.7 1418.39 2720.7 1420.22 2717.7 1422.06C2716.61 1422.72 2715.52 1423.38 2714.39 1424.05C2713.42 1424.65 2712.45 1425.24 2711.45 1425.85C2709 1427 2709 1427 2706 1426C2704.31 1423.85 2704.31 1423.85 2702.44 1421.06C2692.34 1406.89 2679.44 1397.68 2663 1392C2661.62 1391.52 2661.62 1391.52 2660.2 1391.03C2639.07 1384.99 2614.16 1388.54 2595 1399C2590.38 1401.99 2586.17 1405.42 2582 1409C2581.32 1409.57 2580.65 1410.15 2579.95 1410.74C2565.08 1424.48 2556.93 1445.36 2555.88 1465.35C2555.06 1492.12 2560.22 1515.43 2578.59 1535.61C2593.17 1550.08 2613.4 1558.46 2634 1559C2635.06 1559.06 2635.06 1559.06 2636.14 1559.12C2657.1 1559.79 2679.47 1551 2695 1537C2699.06 1532.63 2702.51 1527.82 2706 1523C2706.66 1522.34 2707.32 1521.68 2708 1521C2708.61 1521.35 2709.23 1521.69 2709.86 1522.05C2712.74 1523.68 2715.62 1525.31 2718.5 1526.94C2719.55 1527.53 2720.6 1528.12 2721.68 1528.73C2727.02 1531.76 2732.38 1534.77 2737.74 1537.78C2744.87 1541.78 2751.95 1545.85 2759 1550C2758.45 1554.5 2756.58 1557.78 2754.13 1561.5C2753.73 1562.11 2753.33 1562.72 2752.92 1563.35C2743.05 1578.07 2730.81 1590.67 2715 1599C2714.42 1599.31 2713.85 1599.62 2713.26 1599.94C2693.48 1610.54 2671.39 1617.06 2648.83 1617.2C2648.07 1617.21 2647.32 1617.22 2646.54 1617.22C2614.08 1617.46 2614.08 1617.46 2600 1614C2599.12 1613.78 2598.25 1613.57 2597.35 1613.35C2574.51 1607.5 2549.93 1598.29 2533.56 1580.62C2531.89 1578.89 2530.12 1577.44 2528.25 1575.94C2502.56 1553.67 2489.47 1517.96 2487 1485C2484.75 1445.92 2495.15 1408.84 2521 1379C2525.6 1374.06 2530.49 1368.93 2536 1365C2536.66 1365 2537.32 1365 2538 1365C2538.25 1364.4 2538.51 1363.79 2538.77 1363.17C2540.17 1360.7 2541.37 1359.78 2543.75 1358.27C2544.52 1357.78 2545.28 1357.29 2546.07 1356.79C2546.89 1356.28 2547.71 1355.77 2548.56 1355.25C2549.42 1354.72 2550.28 1354.19 2551.16 1353.64C2577.36 1337.7 2605.42 1331.22 2635.82 1329.88Z" fill="white"/>
<path d="M722 1272C744.44 1272 766.88 1272 790 1272C790 1293.12 790 1314.24 790 1336C814.75 1336 839.5 1336 865 1336C865 1353.82 865 1371.64 865 1390C840.25 1390 815.5 1390 790 1390C790.091 1414.82 790.091 1414.82 790.209 1439.63C790.263 1449.76 790.315 1459.88 790.346 1470C790.369 1477.38 790.403 1484.75 790.449 1492.13C790.473 1496.03 790.491 1499.93 790.498 1503.83C790.504 1507.51 790.524 1511.19 790.554 1514.87C790.567 1516.85 790.565 1518.83 790.563 1520.81C790.691 1533.05 793.255 1542.58 801.594 1551.75C809.385 1559.09 819.667 1561.34 830.09 1561.22C840.929 1560.4 850.627 1557.26 859.875 1551.69C861.422 1550.85 861.422 1550.85 863 1550C866 1551 866 1551 866.955 1552.64C867.226 1553.34 867.498 1554.05 867.778 1554.78C868.091 1555.58 868.405 1556.38 868.728 1557.21C869.056 1558.08 869.384 1558.96 869.723 1559.86C870.069 1560.75 870.415 1561.64 870.772 1562.57C871.879 1565.44 872.971 1568.31 874.062 1571.19C874.802 1573.11 875.542 1575.03 876.283 1576.95C882.004 1591.81 882.004 1591.81 884 1598C877.776 1603.33 871.625 1607.01 864 1610C863.086 1610.36 862.172 1610.72 861.23 1611.09C833.722 1621.06 797.866 1620.58 771 1609C751.439 1599.84 736.952 1586.9 729.23 1566.52C722.972 1548.94 721.832 1531.4 721.886 1512.83C721.887 1511.48 721.887 1510.13 721.886 1508.78C721.886 1505.16 721.892 1501.54 721.899 1497.92C721.905 1494.11 721.905 1490.31 721.907 1486.51C721.91 1479.33 721.918 1472.15 721.928 1464.97C721.939 1456.79 721.945 1448.61 721.95 1440.43C721.96 1423.62 721.978 1406.81 722 1390C707.15 1390 692.3 1390 677 1390C677 1372.18 677 1354.36 677 1336C691.85 1336 706.7 1336 722 1336C722 1314.88 722 1293.76 722 1272Z" fill="white"/>
<path d="M2148 1272C2170.11 1272 2192.22 1272 2215 1272C2215 1293.12 2215 1314.24 2215 1336C2239.75 1336 2264.5 1336 2290 1336C2290 1353.82 2290 1371.64 2290 1390C2265.25 1390 2240.5 1390 2215 1390C2215.06 1414.57 2215.06 1414.57 2215.16 1439.13C2215.21 1449.16 2215.25 1459.18 2215.27 1469.2C2215.28 1476.51 2215.31 1483.81 2215.35 1491.11C2215.38 1494.97 2215.39 1498.84 2215.39 1502.7C2215.39 1506.34 2215.41 1509.99 2215.44 1513.63C2215.45 1515.59 2215.45 1517.54 2215.44 1519.5C2215.58 1531.78 2218 1543.16 2227 1552C2234.86 1558.87 2244.88 1561.68 2255.25 1561.28C2265.11 1560.27 2273.7 1558.2 2282.41 1553.4C2284.89 1552.06 2287.36 1550.99 2290 1550C2292.72 1556 2295.27 1562.05 2297.67 1568.19C2298.16 1569.44 2298.16 1569.44 2298.66 1570.71C2299.69 1573.33 2300.72 1575.94 2301.75 1578.56C2302.45 1580.35 2303.16 1582.14 2303.86 1583.93C2305.58 1588.29 2307.29 1592.64 2309 1597C2300.71 1605.41 2291.29 1609.73 2280 1613C2279.32 1613.2 2278.65 1613.4 2277.95 1613.6C2255.75 1619.81 2229.09 1619.39 2207 1613C2205.96 1612.71 2204.92 1612.42 2203.84 1612.12C2184.38 1605.86 2167.41 1592.73 2157.82 1574.73C2149.91 1559.05 2147.52 1541.76 2147.66 1524.41C2147.66 1522.93 2147.66 1521.45 2147.66 1519.97C2147.66 1516.01 2147.67 1512.05 2147.7 1508.09C2147.71 1503.93 2147.72 1499.77 2147.72 1495.6C2147.73 1487.75 2147.75 1479.9 2147.78 1472.04C2147.82 1463.09 2147.83 1454.13 2147.85 1445.18C2147.88 1426.79 2147.94 1408.39 2148 1390C2132.82 1390 2117.64 1390 2102 1390C2102 1372.18 2102 1354.36 2102 1336C2117.18 1336 2132.36 1336 2148 1336C2148 1314.88 2148 1293.76 2148 1272Z" fill="white"/>
<path d="M937 1272C959.11 1272 981.22 1272 1004 1272C1004 1293.12 1004 1314.24 1004 1336C1028.42 1336 1052.84 1336 1078 1336C1078 1353.82 1078 1371.64 1078 1390C1053.58 1390 1029.16 1390 1004 1390C1004.09 1414.99 1004.09 1414.99 1004.21 1439.99C1004.26 1450.18 1004.31 1460.38 1004.35 1470.58C1004.37 1478 1004.4 1485.43 1004.45 1492.86C1004.47 1496.79 1004.49 1500.72 1004.5 1504.64C1004.5 1508.35 1004.52 1512.05 1004.55 1515.76C1004.57 1517.75 1004.57 1519.75 1004.56 1521.74C1004.69 1533.57 1006.7 1542.33 1015 1551C1023.46 1558.75 1032.91 1561.36 1044.25 1561.14C1054.71 1560.62 1062.42 1557.67 1071.53 1552.78C1074.22 1551.4 1076.13 1550.63 1079 1550C1082.21 1557.83 1085.4 1565.67 1088.58 1573.52C1089.82 1576.56 1091.07 1579.59 1092.32 1582.62C1092.97 1584.21 1093.61 1585.79 1094.25 1587.38C1094.55 1588.09 1094.85 1588.8 1095.16 1589.53C1096.28 1592.33 1097 1594.7 1097.01 1597.73C1094.23 1603.98 1084.79 1607.39 1078.66 1609.74C1077.15 1610.28 1075.64 1610.8 1074.12 1611.31C1073.44 1611.54 1072.76 1611.77 1072.06 1612.01C1059.18 1616.07 1046.72 1617.55 1033.31 1617.44C1032.2 1617.43 1032.2 1617.43 1031.07 1617.43C1003.73 1617.26 978.365 1610.16 957.914 1591.05C949.33 1582.15 945.134 1571.33 941.688 1559.69C941.445 1558.88 941.202 1558.08 940.953 1557.25C935.919 1539.12 936.727 1520.24 936.797 1501.6C936.81 1497.67 936.811 1493.73 936.813 1489.8C936.819 1482.38 936.836 1474.95 936.856 1467.53C936.878 1459.07 936.889 1450.61 936.899 1442.14C936.92 1424.76 936.957 1407.38 937 1390C921.82 1390 906.64 1390 891 1390C891 1372.18 891 1354.36 891 1336C906.18 1336 921.36 1336 937 1336C937 1314.88 937 1293.76 937 1272Z" fill="white"/>
<path d="M1680 1225C1701.78 1225 1723.56 1225 1746 1225C1746 1353.37 1746 1481.74 1746 1614C1724.22 1614 1702.44 1614 1680 1614C1680 1485.63 1680 1357.26 1680 1225Z" fill="white"/>
<path d="M1626 1330C1627 1331 1627 1331 1627.12 1333.51C1627.12 1334.63 1627.12 1335.75 1627.11 1336.9C1627.11 1338.16 1627.11 1339.42 1627.11 1340.72C1627.11 1342.11 1627.1 1343.49 1627.1 1344.88C1627.1 1346.29 1627.09 1347.7 1627.09 1349.11C1627.09 1352.83 1627.08 1356.55 1627.07 1360.27C1627.06 1364.07 1627.05 1367.86 1627.05 1371.65C1627.04 1379.1 1627.02 1386.55 1627 1394C1625 1395 1625 1395 1622.96 1394.58C1603.86 1390.84 1581.86 1395.28 1565.38 1405.19C1547.09 1417.5 1537.35 1433.58 1533 1455C1530.43 1471.28 1530.65 1487.76 1530.6 1504.2C1530.58 1508.07 1530.55 1511.94 1530.53 1515.82C1530.48 1523.12 1530.44 1530.42 1530.41 1537.72C1530.36 1547.61 1530.3 1557.5 1530.24 1567.39C1530.15 1582.93 1530.08 1598.46 1530 1614C1507.89 1614 1485.78 1614 1463 1614C1463 1521.6 1463 1429.2 1463 1334C1484.12 1334 1505.24 1334 1527 1334C1527.33 1345.88 1527.66 1357.76 1528 1370C1531.96 1365.71 1535.92 1361.42 1540 1357C1563.74 1337.13 1595.31 1328.79 1626 1330Z" fill="white"/>
<path d="M2360 1334C2382.11 1334 2404.22 1334 2427 1334C2427 1426.4 2427 1518.8 2427 1614C2404.89 1614 2382.78 1614 2360 1614C2360 1521.6 2360 1429.2 2360 1334Z" fill="white"/>
<path d="M1536.56 756.461C1538.78 757.896 1540.89 759.41 1543 761C1543.87 761.577 1544.73 762.155 1545.63 762.75C1554.45 771.109 1559.28 781.964 1560.24 793.972C1560.58 808.197 1556.01 820.581 1546.5 831.187C1536.93 840.241 1523.88 844.554 1510.89 844.246C1497.96 843.144 1486.88 837.956 1478 828.48C1468.93 817.248 1465.62 804.264 1467 790C1469.39 777.621 1475.41 766.183 1486 759C1501.96 749.805 1519.99 747.002 1536.56 756.461Z" fill="white"/>
<path d="M1167 472C1173.21 476.957 1177.43 482.96 1181 490C1181.42 490.797 1181.83 491.594 1182.26 492.414C1186.79 502.657 1186.61 515.839 1183.5 526.5C1181.03 532.734 1177.27 537.879 1173 543C1172.44 543.682 1171.89 544.364 1171.31 545.067C1164.37 552.797 1153.75 556.571 1143.56 557.219C1128.62 557.581 1117.41 553.998 1106.25 543.813C1096.66 533.438 1092.5 520.959 1093 506.938C1094.5 492.753 1100.97 481.61 1111.84 472.567C1128.34 460.619 1150.01 461.142 1167 472Z" fill="white"/>
<path d="M2029.75 165.687C2039.79 173.639 2045.15 182.062 2047.75 194.625C2048.76 208.22 2046.68 221.032 2038 232C2029.82 240.585 2019.63 247.925 2007.4 248.238C1991.52 248.561 1980.78 246.154 1968.37 235.812C1957.67 223.141 1954.88 211.426 1955.81 195.21C1956.78 183.858 1963.14 174.891 1971 167C1974.47 164.118 1977.94 161.942 1982 160C1982.73 159.644 1983.46 159.288 1984.21 158.922C1999.35 153.079 2017.13 156.269 2029.75 165.687Z" fill="white"/>
<path d="M2422.31 1218.25C2431.82 1227.51 2436.21 1235.45 2436.44 1248.94C2436.34 1261.24 2431.54 1270.58 2423.62 1279.75C2412.47 1289.31 2400.3 1291.05 2386 1290C2379.18 1288.94 2373.43 1287.42 2368 1283C2367.45 1282.6 2366.9 1282.21 2366.34 1281.8C2357.74 1275.21 2352.71 1265.58 2351 1255C2349.86 1244.74 2352.13 1234.44 2358.28 1226.09C2366.44 1216.18 2374.57 1210.8 2387.5 1209.22C2400.45 1208.41 2412.25 1209.57 2422.31 1218.25Z" fill="white"/>
</svg>
