<svg width="1071" height="1069" viewBox="0 0 1071 1069" fill="none" xmlns="http://www.w3.org/2000/svg">
<path d="M374.977 0C480.907 0 586.837 0 695.977 0C696.462 140.675 696.462 140.675 696.555 194.563C696.58 208.654 696.605 222.745 696.632 236.836C696.635 238.54 696.638 240.245 696.641 241.949C696.692 269.113 696.783 296.277 696.893 323.44C697.006 351.362 697.08 379.283 697.104 407.205C697.108 411.15 697.112 415.095 697.116 419.04C697.117 420.205 697.117 420.205 697.118 421.393C697.132 433.884 697.188 446.375 697.259 458.865C697.33 471.428 697.357 483.989 697.339 496.552C697.331 503.357 697.344 510.16 697.408 516.965C697.466 523.198 697.469 529.429 697.428 535.662C697.423 537.914 697.438 540.166 697.476 542.418C697.769 560.98 697.769 560.98 691.738 568.006C689.279 570.512 686.67 572.745 683.977 575C682.193 576.972 682.193 576.972 680.821 578.84C676.311 584.8 671.683 590.6 666.79 596.25C660.412 603.625 654.331 611.152 648.54 619C645.043 623.698 641.314 628.018 637.348 632.32C634.651 635.368 632.154 638.532 629.665 641.75C625.897 646.62 622.016 651.352 617.977 656C613.503 661.154 609.234 666.428 605.052 671.82C601.527 676.347 597.855 680.726 594.122 685.082C590.112 689.784 586.289 694.623 582.505 699.508C580.741 701.781 579.014 703.963 576.977 706C573.29 705.616 569.83 704.355 566.307 703.235C540.615 695.172 515.051 697.047 490.889 708.999C485.735 711.698 480.833 714.799 475.977 718C471.047 714.896 466.396 711.602 461.915 707.875C452.537 700.082 442.696 692.89 432.727 685.875C427.297 682.047 422.215 677.919 417.149 673.617C413.014 670.156 408.674 666.974 404.346 663.76C398.94 659.741 393.603 655.64 388.29 651.5C387.536 650.913 386.781 650.325 386.004 649.72C383.993 648.15 381.982 646.579 379.977 645C379.124 644.525 378.272 644.049 377.393 643.56C373.655 639.599 374.294 635.757 374.362 630.497C374.353 628.867 374.353 628.867 374.345 627.204C374.331 623.53 374.354 619.858 374.376 616.184C374.374 613.537 374.37 610.889 374.363 608.242C374.353 602.47 374.361 596.698 374.381 590.926C374.411 582.343 374.413 573.76 374.409 565.177C374.402 550.74 374.419 536.303 374.449 521.867C374.478 507.568 374.498 493.27 374.503 478.972C374.503 478.083 374.504 477.195 374.504 476.28C374.506 471.768 374.507 467.257 374.509 462.745C374.519 430.775 374.553 398.804 374.6 366.833C374.646 335.771 374.681 304.708 374.703 273.645C374.704 271.692 374.705 269.74 374.707 267.787C374.718 251.921 374.728 236.055 374.738 220.19C374.785 146.793 374.885 73.3966 374.977 0Z" fill="#010101"/>
<path d="M1069.98 292C1068.07 324.026 1061.96 353.726 1050.78 383.831C1050.05 385.803 1049.34 387.782 1048.62 389.762C1041.79 407.922 1032.08 425.124 1020.98 441C1020.51 441.666 1020.05 442.331 1019.57 443.017C1013.43 451.736 1006.73 459.655 999.339 467.341C995.79 471.036 992.454 474.776 989.289 478.813C975.763 495.694 955.872 509.793 937.285 520.567C934.002 522.605 931.033 524.977 928.023 527.395C926.221 528.808 924.403 530.079 922.476 531.313C919.892 532.759 919.892 532.759 918.976 535C919.543 535.263 920.111 535.526 920.695 535.797C923.154 537.094 925.248 538.586 927.476 540.25C932.013 543.595 936.605 546.844 941.235 550.058C949.402 555.731 957.501 561.435 965.274 567.643C966.5 568.62 967.73 569.592 968.963 570.561C983.11 581.697 994.744 593.954 1005.98 608C1006.7 608.869 1007.43 609.738 1008.18 610.633C1027.49 633.759 1042.44 659.415 1052.26 687.917C1052.77 689.391 1053.28 690.863 1053.8 692.333C1078.65 763.05 1074.39 839.586 1043.98 908C1037.42 921.632 1029.84 934.741 1020.98 947C1020.5 947.665 1020.02 948.33 1019.53 949.014C1013.43 957.431 1007.09 965.418 999.976 973C998.265 974.872 996.557 976.748 994.851 978.625C994.016 979.54 993.181 980.456 992.32 981.399C990.29 983.652 988.314 985.939 986.351 988.25C982.87 992.239 979.022 995.598 974.976 999C973.59 1000.22 973.59 1000.22 972.175 1001.46C945.799 1024.51 914.714 1040.94 881.976 1053C881.156 1053.31 880.335 1053.61 879.49 1053.92C848.129 1065.44 815.536 1068.7 782.386 1068.27C778.71 1068.23 775.035 1068.22 771.359 1068.2C764.231 1068.15 757.104 1068.09 749.976 1068C749.856 1021.29 749.745 974.577 749.68 927.865C749.679 927.174 749.678 926.483 749.677 925.771C749.656 910.749 749.636 895.728 749.619 880.706C749.61 873.34 749.601 865.973 749.592 858.607C749.591 857.874 749.59 857.141 749.589 856.385C749.559 832.62 749.506 808.855 749.442 785.089C749.376 760.669 749.333 736.25 749.319 711.83C749.317 708.382 749.314 704.934 749.312 701.486C749.312 700.807 749.311 700.128 749.311 699.429C749.302 688.499 749.27 677.57 749.228 666.64C749.187 655.655 749.172 644.67 749.182 633.685C749.186 627.732 749.179 621.779 749.142 615.826C749.108 610.378 749.106 604.932 749.13 599.484C749.133 597.511 749.124 595.537 749.102 593.564C748.947 578.778 748.947 578.778 751.496 574.374C753.233 572.629 754.943 571.369 756.976 570C758.473 568.252 758.473 568.252 759.679 566.492C760.305 565.611 760.305 565.611 760.944 564.712C761.367 564.106 761.79 563.5 762.226 562.875C766.682 556.645 771.428 550.781 776.425 544.981C778.668 542.36 780.838 539.705 782.976 537C789.068 529.323 795.392 521.822 801.976 514.563C806.859 509.125 811.286 503.328 815.762 497.557C816.836 496.18 817.926 494.816 819.019 493.453C821.239 490.67 823.387 487.836 825.539 485C832.144 476.366 839.131 468.076 846.476 460.063C850.446 455.698 854.067 451.124 857.673 446.46C861.042 442.126 864.558 437.951 868.164 433.813C872.375 428.972 876.219 424.003 879.933 418.766C884.435 412.671 889.504 407.009 894.462 401.284C900.427 394.398 906.251 387.456 911.829 380.253C915.112 376.037 918.534 371.97 922.039 367.938C925.839 363.564 929.486 359.125 932.976 354.5C937.004 349.163 941.271 344.079 945.649 339.026C949.226 334.894 952.682 330.685 956.074 326.399C959.193 322.467 962.381 318.592 965.567 314.715C966.615 313.439 967.662 312.163 968.709 310.887C970.609 308.57 972.511 306.253 974.414 303.938C975.029 303.187 975.645 302.436 976.279 301.662C976.859 300.958 977.438 300.253 978.035 299.528C978.554 298.896 979.072 298.264 979.607 297.613C980.976 296 980.976 296 982.976 294C989.054 294.525 995.032 296.57 1000.9 298.184C1021.79 303.818 1041.97 301.184 1061.86 293.25C1062.63 292.946 1063.4 292.642 1064.19 292.328C1064.87 292.049 1065.55 291.769 1066.26 291.482C1067.98 291 1067.98 291 1069.98 292Z" fill="#207FD1"/>
<path d="M1.97656 0C107.577 0 213.177 0 321.977 0C321.977 197.67 321.977 395.34 321.977 599C318.001 598.006 316.37 597.033 313.227 594.562C312.028 593.636 312.028 593.636 310.805 592.691C310.201 592.133 309.598 591.575 308.977 591C308.977 590.34 308.977 589.68 308.977 589C308.39 588.724 307.804 588.448 307.2 588.163C305.077 587.053 303.3 585.846 301.402 584.391C300.734 583.883 300.066 583.375 299.377 582.852C298.688 582.323 297.999 581.795 297.289 581.25C293.112 578.05 288.927 574.931 284.523 572.047C279.794 568.933 275.355 565.509 270.914 562C269.403 560.812 267.891 559.624 266.379 558.438C265.653 557.868 264.927 557.298 264.179 556.711C260.812 554.095 257.399 551.542 253.977 549C254.754 542.712 256.325 536.82 258.039 530.719C263.796 507.882 258.727 482.522 248.352 461.746C234.509 438.885 211.432 421.108 185.592 414.025C159.154 407.653 132.098 413.016 109.102 426.988C104.824 429.742 100.871 432.734 96.9766 436C96.3991 436.433 95.8216 436.866 95.2266 437.312C76.3283 452.011 66.3904 477.578 63.4453 500.57C61.3031 519.663 64.8902 541.333 75.3242 557.805C76.9766 561 76.9766 561 76.4297 563.191C75.9502 563.788 75.4706 564.385 74.9766 565C74.4764 565.648 73.9762 566.297 73.4609 566.965C69.8688 571.051 66.1623 574.512 61.9766 578C60.2357 579.905 58.5677 581.863 56.8945 583.828C54.8419 586.153 52.6859 588.324 50.4766 590.5C47.6903 593.249 45.0235 596.029 42.4766 599C39.9296 601.971 37.2628 604.751 34.4766 607.5C31.0842 610.852 27.8889 614.298 24.7773 617.91C11.5115 633.305 11.5115 633.305 3.97656 640C3.31656 640 2.65656 640 1.97656 640C1.97656 428.8 1.97656 217.6 1.97656 0Z" fill="#010101"/>
<path d="M221.933 590.004C224.886 591.444 227.364 593.394 229.914 595.438C231.072 596.35 232.231 597.261 233.39 598.172C233.982 598.641 234.574 599.109 235.184 599.592C236.923 600.959 238.676 602.304 240.437 603.641C249.716 610.687 249.716 610.687 253.789 614.375C262.029 621.747 271.215 628.169 280.351 634.375C285.81 638.11 291.064 642.069 296.289 646.125C297.03 646.699 297.771 647.274 298.534 647.865C302.755 651.167 306.852 654.556 310.797 658.186C312.906 660.053 312.906 660.053 315.299 661.309C318.084 662.968 319.944 664.46 321.976 667C323.322 672.335 323.154 677.608 323.058 683.066C323.062 684.726 323.07 686.386 323.082 688.046C323.102 692.603 323.066 697.158 323.021 701.715C322.982 706.63 322.995 711.545 323.002 716.461C323.007 724.975 322.978 733.49 322.928 742.004C322.854 754.315 322.831 766.625 322.82 778.935C322.8 798.908 322.74 818.881 322.655 838.854C322.572 858.256 322.509 877.657 322.47 897.059C322.468 898.267 322.466 899.475 322.463 900.72C322.444 910.169 322.427 919.617 322.41 929.066C322.325 975.378 322.144 1021.69 321.976 1068C216.376 1068 110.776 1068 1.97605 1068C1.37108 980.773 1.37108 980.773 1.24363 944.319C1.21426 935.975 1.18395 927.632 1.15207 919.288C1.14812 918.243 1.14416 917.197 1.14008 916.12C1.0749 899.255 0.95669 882.39 0.81876 865.526C0.67831 848.208 0.595125 830.891 0.564716 813.573C0.544169 802.893 0.479375 792.215 0.357303 781.536C0.277793 774.205 0.2541 766.875 0.273533 759.543C0.283109 755.317 0.268806 751.095 0.187961 746.87C-0.321243 718.908 -0.321241 718.908 7.26903 710.57C9.80564 708.23 12.431 706.168 15.2783 704.221C17.5155 702.613 19.1955 700.704 20.9135 698.563C23.77 695.18 26.8578 692.101 30.0112 688.996C31.8984 687.079 33.6629 685.105 35.4135 683.063C37.9827 680.072 40.6692 677.269 43.476 674.5C46.2623 671.752 48.9291 668.972 51.476 666C54.7277 662.207 58.2332 658.726 61.7885 655.219C63.7733 653.206 65.637 651.146 67.476 649C70.7265 645.208 74.2305 641.729 77.7846 638.223C80.3971 635.573 82.8091 632.789 85.2299 629.965C87.7021 627.183 90.3604 624.607 93.0112 621.996C94.8984 620.079 96.6629 618.105 98.4135 616.063C101.734 612.193 105.306 608.631 108.96 605.079C110.83 603.151 112.421 601.185 113.976 599C118.726 599.594 122.593 600.977 126.976 602.875C149.79 612.19 175.413 611.78 198.23 602.62C205.282 599.641 211.384 596.002 217.523 591.407C219.976 590 219.976 590 221.933 590.004Z" fill="#1E78C6"/>
<path d="M693.977 646C694.637 646 695.297 646 695.977 646C695.977 785.26 695.977 924.52 695.977 1068C590.047 1068 484.117 1068 374.977 1068C374.977 949.53 374.977 831.06 374.977 709C378.679 709.926 379.883 710.451 382.707 712.703C383.419 713.265 384.132 713.827 384.866 714.406C385.624 715.015 386.383 715.623 387.164 716.25C388.779 717.527 390.395 718.803 392.012 720.078C392.834 720.73 393.657 721.381 394.504 722.053C398.34 725.074 402.219 728.039 406.102 731C406.775 731.515 407.448 732.029 408.141 732.56C408.791 733.056 409.44 733.552 410.109 734.062C411.052 734.784 411.052 734.784 412.013 735.52C413.412 736.574 414.824 737.612 416.245 738.637C417.346 739.435 417.346 739.435 418.469 740.25C419.14 740.73 419.812 741.209 420.503 741.703C420.99 742.131 421.476 742.559 421.977 743C421.977 743.66 421.977 744.32 421.977 745C422.957 745.306 422.957 745.306 423.957 745.617C428.182 747.552 431.62 750.299 435.289 753.125C436.4 753.97 436.4 753.97 437.533 754.832C439.352 756.216 441.166 757.606 442.977 759C442.105 764.895 440.513 770.514 438.914 776.246C432.674 801.232 438.793 826.866 451.102 848.938C457.169 858.847 465.501 868.386 475.102 875C476.05 875.66 476.999 876.32 477.977 877C477.977 877.66 477.977 878.32 477.977 879C478.661 879.251 479.346 879.503 480.051 879.762C482.801 880.926 485.343 882.291 487.937 883.767C496.321 888.498 504.682 891.566 513.977 894C514.872 894.246 515.768 894.492 516.691 894.746C541.189 900.358 567.44 893.883 588.645 881.281C594.346 877.546 599.165 872.797 603.977 868C604.835 867.147 605.694 866.293 606.578 865.414C607.37 864.617 608.161 863.821 608.977 863C609.622 862.352 610.268 861.703 610.934 861.035C627.666 843.246 635.236 818.053 634.977 794C634.192 774.376 627.166 756.581 616.977 740C622.551 732.779 628.195 725.65 634.164 718.75C641.318 710.475 648.064 702.042 654.312 693.055C655.136 692.038 655.136 692.038 655.977 691C656.637 691 657.297 691 657.977 691C658.319 690.192 658.319 690.192 658.668 689.367C660.373 686.283 662.607 683.764 664.914 681.125C668.873 676.528 672.7 671.86 676.414 667.062C680.356 661.997 684.391 657.023 688.539 652.125C689.052 651.511 689.565 650.898 690.094 650.266C691.343 648.804 692.655 647.396 693.977 646Z" fill="#2283D5"/>
<path d="M749.977 0C814.948 0 877.454 2.44519 932.977 39C933.771 39.519 934.566 40.038 935.385 40.5728C945.83 47.4042 956.124 54.3316 965.977 62C966.735 62.5659 967.492 63.1318 968.273 63.7148C978.903 71.7248 988.287 80.9395 996.977 91C997.622 91.7444 997.622 91.7444 998.281 92.5039C1005.98 101.43 1005.98 101.43 1005.98 105C1005.07 105.245 1004.15 105.49 1003.21 105.742C994.829 108.116 986.928 111.166 979.039 114.875C978.176 115.273 977.314 115.671 976.425 116.082C970.306 119.03 965.19 122.666 959.977 127C959.153 127.652 958.329 128.305 957.48 128.977C939.671 144.098 929.029 167.068 925.977 190C924.905 204.742 925.49 218.896 929.977 233C930.35 234.24 930.724 235.48 931.109 236.758C933.416 243.831 936.343 249.672 940.719 255.695C941.977 258 941.977 258 941.867 260.043C940.796 262.396 939.483 264.179 937.852 266.188C937.217 266.976 936.583 267.765 935.93 268.578C935.285 269.377 934.641 270.177 933.977 271C932.85 272.478 931.725 273.957 930.602 275.438C928.105 278.656 925.481 281.688 922.727 284.688C919.175 288.576 915.884 292.59 912.664 296.75C908.832 301.7 904.886 306.517 900.789 311.25C896.815 315.843 892.932 320.481 889.164 325.246C886.316 328.832 883.428 332.385 880.539 335.938C879.695 336.976 879.695 336.976 878.833 338.035C874.225 343.699 869.604 349.352 864.977 355C864.297 355.831 863.618 356.663 862.918 357.52C857.676 363.935 852.413 370.334 847.141 376.725C844.549 379.87 841.958 383.015 839.395 386.184C835.842 390.57 832.237 394.846 828.414 399C825.474 402.228 822.814 405.501 820.289 409.062C815.177 416.26 809.49 422.971 803.845 429.752C800.772 433.449 797.719 437.163 794.664 440.875C794.077 441.587 793.49 442.299 792.885 443.032C790.395 446.054 787.908 449.077 785.449 452.125C781.778 456.667 778.031 461.048 774.039 465.312C769.761 469.949 766.132 474.827 762.533 479.988C756.009 489.311 756.009 489.311 751.977 493C751.317 493 750.657 493 749.977 493C749.977 330.31 749.977 167.62 749.977 0Z" fill="#020202"/>
<path d="M565.327 760.75C574.052 767.986 579.788 777.832 581.976 789C582.996 804.784 580.353 816.549 570.304 829.086C562.319 837.992 550.452 843.135 538.663 844.211C525.002 844.78 512.265 840.014 502.163 830.812C493.061 820.82 488.169 808.064 488.695 794.523C490.315 779.986 496.521 768.186 507.976 759C526.336 747.572 547.855 747.747 565.327 760.75Z" fill="#2580CD"/>
<path d="M187.867 471.472C190.588 473.443 192.78 475.448 194.976 478C195.805 478.918 195.805 478.918 196.652 479.855C204.999 489.668 208.454 501.191 207.976 514C206.945 522.514 204.92 529.956 199.976 537C199.36 537.906 198.744 538.812 198.109 539.746C191.583 548.555 182.49 554.988 171.468 556.785C156.596 558.067 144.368 556.58 132.409 547.121C123.937 539.736 116.809 529.529 115.799 517.976C115.402 504.143 116.643 493.494 124.976 482C125.394 481.405 125.811 480.811 126.242 480.199C140.731 461.42 168.714 458.999 187.867 471.472Z" fill="#2073BC"/>
<path d="M1048.86 162.918C1060.08 171.566 1068.05 181.752 1069.98 196.001C1070.92 209.962 1068.41 221.995 1059.38 232.93C1050.97 241.854 1041.26 247.724 1028.86 248.469C1027.13 248.503 1025.4 248.513 1023.66 248.501C1022.29 248.493 1022.29 248.493 1020.9 248.485C1008.56 248.169 998.447 243.773 989.891 234.817C980.287 223.659 977.093 211.482 977.789 196.981C978.512 189.368 981.24 181.991 985.977 176.001C986.384 175.379 986.792 174.758 987.211 174.118C992.813 165.841 1000.83 160.51 1010.38 157.661C1023.34 155.284 1037.63 155.454 1048.86 162.918Z" fill="#1E72BC"/>
<path d="M982.977 294C984.297 294.33 985.617 294.66 986.977 295C984.337 296.98 981.697 298.96 978.977 301C980.246 295.921 980.246 295.921 982.977 294Z" fill="#7BABD5"/>
<path d="M130.977 475C131.637 475 132.297 475 132.977 475C131.684 477.884 130.317 479.872 127.977 482C127.317 481.67 126.657 481.34 125.977 481C127.593 478.959 129.262 476.959 130.977 475Z" fill="#639AD2"/>
<path d="M692.977 647C693.637 647 694.297 647 694.977 647C693.684 649.884 692.317 651.872 689.977 654C689.317 653.67 688.657 653.34 687.977 653C689.593 650.959 691.262 648.959 692.977 647Z" fill="#6BA3DB"/>
</svg>
